<svg width="1512" height="800" viewBox="0 0 1512 800" fill="none" xmlns="http://www.w3.org/2000/svg">
<g clip-path="url(#clip0_731_7)">
<rect width="1512" height="800" fill="url(#paint0_radial_731_7)"/>
<path d="M525.511 356.36C514.528 356.36 504.231 353.102 494.621 346.587C489.404 342.786 484.53 336.61 480 328.058L500.387 317.062C502.172 320.999 504.712 324.121 508.007 326.429C511.851 329.008 515.146 330.773 517.891 331.723C520.637 332.537 523.932 332.944 527.776 332.944C530.385 332.809 532.924 332.198 535.396 331.112C537.729 330.297 539.445 329.144 540.544 327.65C541.368 326.429 541.779 325.275 541.779 324.189C541.779 322.831 541.093 321.61 539.72 320.524C538.484 319.574 536.906 318.759 534.984 318.08C533.062 317.266 530.316 316.248 526.746 315.026L520.568 312.786L512.949 309.936C510.066 308.85 507.801 307.9 506.153 307.085C504.506 306.135 502.652 304.981 500.593 303.624C496.612 301.18 493.591 298.397 491.532 295.275C489.61 292.832 488.031 289.981 486.796 286.723C485.697 283.465 485.148 280.14 485.148 276.746C485.148 271.724 486.315 266.973 488.649 262.493C491.807 256.52 496.543 252.312 502.858 249.869C509.174 247.29 515.42 246 521.598 246C526.815 246 532.238 246.747 537.867 248.24C543.633 249.733 548.918 252.244 553.723 255.774C557.293 258.624 559.97 261.271 561.755 263.715L542.397 277.764C541.848 276.95 541.024 276.135 539.926 275.321C534.709 271.656 528.188 269.687 520.363 269.416C515.146 269.687 511.576 271.113 509.654 273.692C508.968 274.642 508.624 275.728 508.624 276.95C508.624 278.036 508.968 279.122 509.654 280.208C510.203 281.294 511.507 282.515 513.567 283.873C516.587 285.909 519.402 287.334 522.01 288.149L529.424 290.796C538.347 293.782 544.937 296.497 549.193 298.94C553.449 301.384 556.675 303.963 558.872 306.678C563.128 311.836 565.256 317.809 565.256 324.596C565.256 329.483 563.883 334.37 561.137 339.257C557.705 344.686 552.213 349.166 544.662 352.695C541.917 353.917 538.759 354.799 535.19 355.342C531.757 356.021 528.531 356.36 525.511 356.36Z" fill="url(#paint1_radial_731_7)"/>
<path d="M602.295 347.365C602.295 354.967 604.423 361.075 608.678 365.691C613.072 370.306 619.593 372.614 628.242 372.614C635.93 372.614 642.245 370.102 647.188 365.08C652.13 360.057 654.532 353.881 654.395 346.551V288.927H678.901V396.64H654.395V380.351C650.688 385.645 646.227 389.717 641.01 392.568C635.793 395.283 630.301 396.64 624.535 396.64C616.161 396.64 608.404 394.944 601.265 391.55C594.263 388.021 588.566 382.591 584.173 375.261C579.917 367.93 577.789 358.835 577.789 347.976V289.334H602.295V347.365Z" fill="url(#paint2_radial_731_7)"/>
<path d="M715.855 320.676C719.15 314.432 724.092 309.613 730.682 306.22C737.409 302.69 743.518 300.926 749.01 300.926V324.138C742.832 324.138 737.203 325.699 732.123 328.821C727.044 331.943 723.062 335.88 720.179 340.631C717.296 345.382 715.855 350.133 715.855 354.884V409.046H691.349V301.333H715.855V320.676Z" fill="url(#paint3_radial_731_7)"/>
<path d="M779.374 438.408V353.907H761.252V329.88H779.374V313.998C779.374 307.618 780.953 301.645 784.11 296.08C787.268 290.378 791.455 285.763 796.672 282.234C802.026 278.568 807.861 276.464 814.176 275.921C818.707 275.65 823.58 276.329 828.797 277.958C834.152 279.451 838.408 281.283 841.565 283.455L827.15 304.224C825.914 303.41 824.336 302.731 822.414 302.188C820.491 301.509 818.569 301.17 816.647 301.17C812.803 301.17 809.852 302.324 807.792 304.631C805.87 306.803 804.909 309.926 804.909 313.998V329.88H837.241V353.907H804.909V438.408H779.374Z" fill="url(#paint4_radial_731_7)"/>
<path d="M879.646 346.476V455.207H855.552V346.476H879.646ZM854.111 307.789C854.111 303.988 855.278 300.866 857.612 298.422C860.083 295.843 863.378 294.554 867.496 294.554C871.752 294.554 875.047 295.843 877.381 298.422C879.852 300.866 881.088 303.988 881.088 307.789C881.088 311.725 879.852 314.983 877.381 317.562C875.047 320.006 871.752 321.227 867.496 321.227C863.24 321.227 859.946 320.006 857.612 317.562C855.278 314.983 854.111 311.725 854.111 307.789Z" fill="url(#paint5_radial_731_7)"/>
<path d="M970.135 384.638C970.135 376.901 967.939 370.724 963.546 366.109C959.29 361.494 952.837 359.186 944.188 359.186C939.383 359.186 934.921 360.408 930.802 362.851C926.821 365.159 923.664 368.349 921.33 372.421C918.996 376.358 917.897 380.702 918.035 385.453V442.669H893.529V335.363H918.035V351.652C921.604 346.63 926.066 342.693 931.42 339.843C936.912 336.856 942.403 335.363 947.895 335.363C961.486 335.363 972.675 339.435 981.462 347.58C990.248 355.725 994.641 367.874 994.641 384.027V442.669H970.135V384.638Z" fill="url(#paint6_radial_731_7)"/>
<path d="M1060.32 350.359C1065.4 350.359 1070.14 349.002 1074.53 346.287C1078.92 343.572 1082.43 339.839 1085.03 335.088C1087.64 330.337 1088.95 325.11 1088.95 319.409C1088.95 313.844 1087.64 308.753 1085.03 304.138C1082.43 299.523 1078.92 295.858 1074.53 293.143C1070.14 290.428 1065.4 289.07 1060.32 289.07C1050.99 289.07 1043.92 291.921 1039.11 297.622C1034.31 303.188 1031.9 310.45 1031.9 319.409C1031.9 328.64 1034.31 336.106 1039.11 341.807C1043.92 347.508 1050.99 350.359 1060.32 350.359ZM1006.78 319.613C1006.78 309.296 1008.77 300.066 1012.75 291.921C1016.87 283.776 1022.84 277.396 1030.67 272.781C1038.49 268.03 1047.76 265.654 1058.47 265.654C1064.1 265.654 1069.93 266.944 1075.97 269.523C1082.01 271.966 1086.96 276.175 1090.8 282.147V265.043H1115.51V367.056C1115.51 377.915 1112.9 387.281 1107.69 395.155C1102.47 403.028 1095.47 409.001 1086.68 413.073C1077.9 417.145 1068.08 419.181 1057.23 419.181C1047.62 419.181 1038.49 416.942 1029.84 412.462C1021.33 408.118 1014.54 402.213 1009.46 394.747L1030.26 381.105C1033.55 385.992 1037.74 389.589 1042.82 391.897C1047.9 394.204 1052.7 395.358 1057.23 395.358C1062.45 395.358 1067.6 394.476 1072.68 392.711C1077.76 390.947 1082.01 388.164 1085.45 384.363C1089.02 380.698 1090.8 375.947 1090.8 370.11V356.671C1086.41 362.78 1081.26 367.191 1075.36 369.906C1069.45 372.621 1063.82 373.979 1058.47 373.979C1047.76 373.979 1038.49 371.671 1030.67 367.056C1022.84 362.304 1016.87 355.857 1012.75 347.712C1008.77 339.432 1006.78 330.065 1006.78 319.613Z" fill="url(#paint7_radial_731_7)"/>
<path d="M1149.24 332.209C1153.49 332.209 1156.85 333.499 1159.33 336.078C1161.8 338.657 1163.03 341.915 1163.03 345.851C1163.03 349.924 1161.8 353.249 1159.33 355.829C1156.85 358.408 1153.49 359.697 1149.24 359.697C1144.84 359.697 1141.41 358.408 1138.94 355.829C1136.47 353.249 1135.23 349.924 1135.23 345.851C1135.23 341.915 1136.47 338.657 1138.94 336.078C1141.41 333.499 1144.84 332.209 1149.24 332.209Z" fill="url(#paint8_radial_731_7)"/>
<path d="M0 416.838V270.779C91.3231 270.779 132.512 218.353 254 218C386.344 218.18 504.763 388.834 620.5 379C697 372.5 766.5 428.5 830 428.5C910.5 428.5 988.583 421.385 1042.5 409.5C1135.5 389 1204 283.38 1298 270C1435 250.5 1512 304.875 1512 304.875V783.013H0V416.838Z" fill="#7F8ABD"/>
<path d="M800.146 516.712V519.836H784.394V533.344H780.61V519.836H765.078V516.712H800.146ZM768.906 504.656C768.906 502.925 769.463 501.429 770.578 500.168C771.722 498.877 773.321 497.895 775.374 497.22C777.427 496.516 779.803 496.164 782.502 496.164C785.201 496.164 787.577 496.516 789.63 497.22C791.683 497.895 793.267 498.877 794.382 500.168C795.526 501.429 796.098 502.925 796.098 504.656C796.098 506.357 795.526 507.853 794.382 509.144C793.267 510.435 791.683 511.432 789.63 512.136C787.577 512.811 785.201 513.148 782.502 513.148C779.833 513.148 777.457 512.811 775.374 512.136C773.321 511.432 771.722 510.435 770.578 509.144C769.463 507.853 768.906 506.357 768.906 504.656ZM772.822 504.656C772.822 506.328 773.702 507.663 775.462 508.66C777.222 509.628 779.569 510.112 782.502 510.112C785.435 510.112 787.782 509.628 789.542 508.66C791.331 507.663 792.226 506.328 792.226 504.656C792.226 503.013 791.331 501.693 789.542 500.696C787.753 499.699 785.406 499.2 782.502 499.2C779.598 499.2 777.251 499.699 775.462 500.696C773.702 501.693 772.822 503.013 772.822 504.656ZM834.467 494.536V533.388H830.639V494.536H834.467ZM804.767 498.188H822.719V512.136H808.683V520.892C812.027 520.892 815.136 520.789 818.011 520.584C820.915 520.379 823.951 520.027 827.119 519.528L827.515 522.652C824.288 523.18 821.179 523.547 818.187 523.752C815.195 523.928 811.836 524.016 808.111 524.016H804.855V509.056H818.891V501.268H804.767V498.188ZM875.256 510.64V513.72H840.276V510.64H875.256ZM844.412 516.932H870.724V526.128H848.24V529.868H871.912V532.904H844.544V523.356H867.028V519.88H844.412V516.932ZM844.896 495.812H870.68V498.892H848.636V504.612H871.076V507.648H844.896V495.812ZM890.305 497.352C892.3 497.352 894.074 497.748 895.629 498.54C897.213 499.303 898.445 500.388 899.325 501.796C900.234 503.175 900.689 504.759 900.689 506.548C900.689 508.337 900.234 509.936 899.325 511.344C898.445 512.723 897.213 513.808 895.629 514.6C894.074 515.363 892.3 515.744 890.305 515.744C888.31 515.744 886.521 515.363 884.937 514.6C883.353 513.808 882.106 512.723 881.197 511.344C880.317 509.936 879.877 508.337 879.877 506.548C879.877 504.759 880.317 503.175 881.197 501.796C882.106 500.388 883.353 499.303 884.937 498.54C886.521 497.748 888.31 497.352 890.305 497.352ZM877.985 521.772C883.118 521.772 887.665 521.699 891.625 521.552C895.614 521.405 899.442 521.039 903.109 520.452L903.417 523.268C899.633 524.001 895.746 524.471 891.757 524.676C887.768 524.881 883.338 524.984 878.469 524.984L877.985 521.772ZM883.573 506.548C883.573 508.279 884.204 509.701 885.465 510.816C886.756 511.901 888.369 512.444 890.305 512.444C892.241 512.444 893.84 511.901 895.101 510.816C896.362 509.701 896.993 508.279 896.993 506.548C896.993 504.817 896.362 503.409 895.101 502.324C893.84 501.209 892.241 500.652 890.305 500.652C888.34 500.652 886.726 501.209 885.465 502.324C884.204 503.409 883.573 504.817 883.573 506.548ZM905.617 494.536H909.401V533.388H905.617V494.536Z" fill="#E3E5EF"/>
<path d="M0 301.004C80.547 300.543 115.611 391.5 261 391.5C406.389 391.5 430.952 447.553 534.475 447.553C651.818 447.553 645.186 530.606 839.018 532.4C1080.48 534.635 1193.12 359.364 1282.83 341.376C1347.71 328.366 1371.37 366.686 1422.17 366.686C1472.98 366.686 1512 328.353 1512 328.353V896.431H0V301.004Z" fill="#AEB4D4"/>
<path d="M679.159 602.452V605.928H675.287V623.968C677.194 623.821 679.012 623.645 680.743 623.44L680.963 626.608C674.92 627.605 666.956 628.104 657.071 628.104L656.587 624.496H661.427V605.928H657.555V602.452H679.159ZM665.651 624.408C668.056 624.349 669.875 624.291 671.107 624.232V605.928H665.651V624.408ZM682.855 598.492H687.211V613.76H693.283V617.368H687.211V637.432H682.855V598.492ZM725.58 601.396V604.916H703.316V616.356H725.976V619.832H714.36V629.116H729.936V632.68H694.648V629.116H710.092V619.832H699.004V601.396H725.58ZM756.886 617.808V612.176H761.198V617.808H776.73V621.284H741.486V617.808H756.886ZM743.466 610.9C745.959 610.577 748.232 609.917 750.286 608.92C752.339 607.923 753.952 606.705 755.126 605.268C756.299 603.801 756.886 602.261 756.886 600.648V599.152H761.242V600.648C761.242 602.261 761.828 603.801 763.002 605.268C764.175 606.705 765.774 607.923 767.798 608.92C769.851 609.917 772.124 610.577 774.618 610.9L772.99 614.332C769.822 613.833 767.006 612.865 764.542 611.428C762.107 609.991 760.274 608.231 759.042 606.148C757.81 608.231 755.962 609.991 753.498 611.428C751.034 612.865 748.232 613.833 745.094 614.332L743.466 610.9ZM745.402 624.672H772.33V637.432H768.062V628.104H745.402V624.672ZM796.663 600.736C799.361 600.736 801.796 601.191 803.967 602.1C806.137 603.009 807.839 604.3 809.071 605.972C810.332 607.615 810.963 609.507 810.963 611.648C810.963 613.819 810.332 615.74 809.071 617.412C807.839 619.055 806.137 620.331 803.967 621.24C801.796 622.149 799.361 622.604 796.663 622.604C793.964 622.604 791.529 622.149 789.359 621.24C787.188 620.331 785.472 619.055 784.211 617.412C782.979 615.74 782.363 613.819 782.363 611.648C782.363 609.507 782.979 607.615 784.211 605.972C785.472 604.3 787.188 603.009 789.359 602.1C791.529 601.191 793.964 600.736 796.663 600.736ZM779.063 628.852H814.351V632.416H779.063V628.852ZM786.543 611.648C786.543 613.144 786.968 614.449 787.819 615.564C788.699 616.679 789.901 617.544 791.427 618.16C792.981 618.747 794.727 619.04 796.663 619.04C798.599 619.04 800.329 618.747 801.855 618.16C803.38 617.544 804.568 616.679 805.419 615.564C806.299 614.449 806.739 613.144 806.739 611.648C806.739 610.181 806.299 608.891 805.419 607.776C804.568 606.661 803.38 605.796 801.855 605.18C800.329 604.564 798.599 604.256 796.663 604.256C794.727 604.256 792.981 604.564 791.427 605.18C789.901 605.796 788.699 606.661 787.819 607.776C786.968 608.891 786.543 610.181 786.543 611.648ZM832.084 629.248V622.516H820.908V610.02H843.436V604.652H820.82V601.22H847.704V613.452H825.176V619.04H848.584V622.516H836.352V629.248H851.928V632.768H816.64V629.248H832.084Z" fill="#5A69B0"/>
<path d="M-1 361.002C79.547 360.569 48.6384 440.245 191.896 440.245C335.154 440.245 353.598 532.327 457.119 532.327C574.462 532.327 563.167 636.314 757 638C915.5 639.379 944.985 544.325 1075.9 544.325C1206.81 544.325 1255.24 412.622 1314.4 412.622C1372.7 412.622 1368.23 449.635 1419.03 449.635C1469.83 449.635 1511 412.622 1511 412.622V983.509H-1V361.002Z" fill="#CACDE0"/>
<path d="M754.925 713.896V705.844H759.721V713.896H775.077V717.856H739.613V713.896H754.925ZM741.065 703.336C743.793 702.984 746.184 702.295 748.237 701.268C750.291 700.241 751.875 698.995 752.989 697.528C754.133 696.061 754.764 694.507 754.881 692.864H742.781V688.948H754.925V683.976H759.721V688.948H771.909V692.864H759.765C759.883 694.507 760.499 696.061 761.613 697.528C762.757 698.995 764.356 700.241 766.409 701.268C768.463 702.295 770.868 702.984 773.625 703.336L771.777 707.164C768.433 706.695 765.515 705.741 763.021 704.304C760.528 702.867 758.636 701.077 757.345 698.936C756.055 701.077 754.148 702.867 751.625 704.304C749.132 705.741 746.199 706.695 742.825 707.164L741.065 703.336ZM810.63 683.36V722.52H806.01V702.632H801.742V720.584H797.254V684.152H801.742V698.672H806.01V683.36H810.63ZM778.422 688.024H792.854V691.94H783.174V709.408C787.457 709.349 791.329 708.997 794.79 708.352L795.23 712.312C793.001 712.752 790.816 713.045 788.674 713.192C786.533 713.339 783.996 713.412 781.062 713.412H778.422V688.024ZM845.391 683.404V692.996H850.847V697H845.391V706.24H840.551V683.404H845.391ZM814.811 687.012H823.919V683.052H828.759V687.012H837.867V690.84H814.811V687.012ZM816.835 699.068C816.835 697.719 817.231 696.516 818.023 695.46C818.815 694.404 819.93 693.597 821.367 693.04C822.834 692.453 824.491 692.16 826.339 692.16C828.217 692.16 829.874 692.453 831.311 693.04C832.749 693.597 833.863 694.404 834.655 695.46C835.477 696.516 835.887 697.719 835.887 699.068C835.887 700.447 835.477 701.664 834.655 702.72C833.863 703.776 832.749 704.597 831.311 705.184C829.874 705.741 828.217 706.02 826.339 706.02C824.491 706.02 822.834 705.741 821.367 705.184C819.93 704.597 818.815 703.776 818.023 702.72C817.231 701.664 816.835 700.447 816.835 699.068ZM820.267 707.824H825.063V711.256H840.639V707.824H845.391V722.08H820.267V707.824ZM821.455 699.068C821.455 700.124 821.895 700.96 822.775 701.576C823.685 702.163 824.873 702.456 826.339 702.456C827.806 702.456 828.979 702.163 829.859 701.576C830.769 700.96 831.223 700.124 831.223 699.068C831.223 698.041 830.769 697.235 829.859 696.648C828.979 696.032 827.806 695.724 826.339 695.724C824.873 695.724 823.685 696.032 822.775 696.648C821.895 697.235 821.455 698.041 821.455 699.068ZM840.639 718.252V714.908H825.063V718.252H840.639ZM884.773 683.36V722.52H879.977V683.36H884.773ZM854.545 687.144H859.341V708.572C865.706 708.455 871.441 707.883 876.545 706.856L877.117 710.904C871.133 712.107 864.738 712.708 857.933 712.708H854.545V687.144ZM920.414 683.316V698.188H926.354V702.192H920.414V722.608H915.53V683.316H920.414ZM891.506 687.1H909.766V690.972H896.346V709.012C899.631 708.983 902.506 708.88 904.97 708.704C907.463 708.528 909.971 708.205 912.494 707.736L912.978 711.784C910.22 712.283 907.463 712.62 904.706 712.796C901.978 712.972 898.648 713.06 894.718 713.06H891.506V687.1Z" fill="#394A9C"/>
<path d="M0 511.307C80.547 510.907 107.64 601.586 240.287 601.586C437.833 601.586 613.5 722.638 823.573 722.638C1066 722.638 1147.5 540 1302.56 540C1417 540 1392.07 489 1512 489V1092.3H0V511.307Z" fill="#E3E5EF"/>
<path opacity="0.7" d="M642.705 196.136V200.712H644.769V201.864H642.705V206.696H641.313V196.136H642.705ZM631.793 197.8H635.265V196.136H636.641V197.8H640.113V198.92H631.793V197.8ZM632.577 202.296C632.577 201.773 632.716 201.315 632.993 200.92C633.281 200.515 633.681 200.205 634.193 199.992C634.705 199.768 635.292 199.656 635.953 199.656C636.614 199.656 637.201 199.768 637.713 199.992C638.225 200.205 638.62 200.515 638.897 200.92C639.185 201.315 639.329 201.773 639.329 202.296C639.329 203.096 639.014 203.736 638.385 204.216C637.766 204.696 636.956 204.936 635.953 204.936C634.95 204.936 634.134 204.696 633.505 204.216C632.886 203.736 632.577 203.096 632.577 202.296ZM633.889 202.296C633.889 202.776 634.076 203.155 634.449 203.432C634.833 203.709 635.334 203.848 635.953 203.848C636.572 203.848 637.068 203.709 637.441 203.432C637.814 203.155 638.001 202.776 638.001 202.296C638.001 201.816 637.814 201.437 637.441 201.16C637.068 200.883 636.572 200.744 635.953 200.744C635.334 200.744 634.833 200.883 634.449 201.16C634.076 201.437 633.889 201.816 633.889 202.296ZM633.905 205.848H635.281V208.776H643.329V209.896H633.905V205.848ZM663.265 196.808V197.832C663.265 198.579 663.244 199.245 663.201 199.832C663.169 200.419 663.079 201.075 662.929 201.8H664.897V202.936H659.201V205.432H663.345V210.216H661.969V206.536H653.473V205.432H657.825V202.936H652.145V201.8H661.553C661.713 201.075 661.815 200.424 661.857 199.848C661.9 199.261 661.921 198.621 661.921 197.928H653.777V196.808H663.265ZM684.066 196.12V210.232H682.674V196.12H684.066ZM673.426 197.464H680.098V198.6H674.802V205.576C676.231 205.576 677.421 205.544 678.37 205.48C679.33 205.416 680.29 205.293 681.25 205.112L681.394 206.28C680.381 206.472 679.373 206.6 678.37 206.664C677.367 206.728 676.103 206.76 674.578 206.76H673.426V197.464ZM701.218 197.56V198.712H697.97V200.36C697.97 201.139 698.136 201.912 698.466 202.68C698.797 203.448 699.245 204.131 699.81 204.728C700.376 205.315 701.005 205.757 701.698 206.056L700.914 207.16C700.104 206.787 699.378 206.227 698.738 205.48C698.109 204.733 697.629 203.885 697.298 202.936C696.968 203.96 696.482 204.883 695.842 205.704C695.213 206.515 694.493 207.117 693.682 207.512L692.882 206.408C693.565 206.088 694.189 205.608 694.754 204.968C695.32 204.317 695.762 203.587 696.082 202.776C696.413 201.965 696.578 201.16 696.578 200.36V198.712H693.346V197.56H701.218ZM703.042 196.136H704.434V210.216H703.042V196.136ZM720.371 196.984V198.088H715.379V199.496H719.987V200.552H715.379V202.072C716.744 202.072 717.827 202.056 718.627 202.024C719.437 201.981 720.248 201.891 721.059 201.752L721.187 202.856C720.312 202.995 719.443 203.085 718.579 203.128C717.725 203.171 716.547 203.192 715.043 203.192H714.003V196.984H720.371ZM715.795 204.312H724.899V207.656H717.203V208.968H725.395V210.056H715.843V206.632H723.539V205.416H715.795V204.312ZM720.931 199.32H723.523V196.12H724.899V203.688H723.523V200.44H720.931V199.32ZM740.963 197.48V206.696H734.467V197.48H740.963ZM739.635 205.576V198.6H735.827V205.576H739.635ZM743.827 196.104H745.219V210.232H743.827V196.104ZM765.603 196.12V210.232H764.211V196.12H765.603ZM754.963 197.464H761.635V198.6H756.339V205.576C757.769 205.576 758.958 205.544 759.907 205.48C760.867 205.416 761.827 205.293 762.787 205.112L762.931 206.28C761.918 206.472 760.91 206.6 759.907 206.664C758.905 206.728 757.641 206.76 756.115 206.76H754.963V197.464ZM778.212 197.192C778.841 197.192 779.406 197.368 779.908 197.72C780.409 198.061 780.814 198.557 781.124 199.208C781.444 199.848 781.636 200.6 781.7 201.464H784.692V196.104H786.052V210.232H784.692V202.568H781.716C781.673 203.475 781.497 204.269 781.188 204.952C780.878 205.624 780.468 206.141 779.956 206.504C779.444 206.867 778.862 207.048 778.212 207.048C777.529 207.048 776.921 206.845 776.388 206.44C775.854 206.035 775.438 205.464 775.14 204.728C774.841 203.981 774.692 203.112 774.692 202.12C774.692 201.128 774.841 200.259 775.14 199.512C775.438 198.765 775.854 198.195 776.388 197.8C776.921 197.395 777.529 197.192 778.212 197.192ZM776.004 202.12C776.004 202.867 776.094 203.517 776.276 204.072C776.468 204.627 776.729 205.059 777.06 205.368C777.39 205.667 777.774 205.816 778.212 205.816C778.649 205.816 779.033 205.667 779.364 205.368C779.694 205.059 779.95 204.627 780.132 204.072C780.324 203.517 780.42 202.867 780.42 202.12C780.42 201.373 780.324 200.723 780.132 200.168C779.95 199.613 779.694 199.187 779.364 198.888C779.033 198.589 778.649 198.44 778.212 198.44C777.774 198.44 777.39 198.589 777.06 198.888C776.729 199.187 776.468 199.613 776.276 200.168C776.094 200.723 776.004 201.373 776.004 202.12ZM806.084 197.512V198.888C806.084 200.083 806.052 201.155 805.988 202.104C805.935 203.053 805.796 204.163 805.572 205.432L804.164 205.272C804.399 204.077 804.543 203.011 804.596 202.072C804.66 201.123 804.692 200.061 804.692 198.888V198.648H796.18V197.512H806.084ZM794.836 207.112H799.732V202.104H801.108V207.112H807.572V208.264H794.836V207.112ZM827.956 202.808V203.944H815.236V202.808H827.956ZM816.74 207.64C816.74 206.84 817.167 206.221 818.02 205.784C818.874 205.336 820.058 205.112 821.572 205.112C823.087 205.112 824.271 205.336 825.124 205.784C825.978 206.221 826.404 206.84 826.404 207.64C826.404 208.451 825.978 209.08 825.124 209.528C824.271 209.976 823.087 210.2 821.572 210.2C820.058 210.2 818.874 209.976 818.02 209.528C817.167 209.08 816.74 208.451 816.74 207.64ZM816.836 196.664H826.372V197.816H818.196V200.392H826.468V201.512H816.836V196.664ZM818.132 207.64C818.132 208.12 818.431 208.488 819.028 208.744C819.636 208.989 820.484 209.112 821.572 209.112C822.66 209.112 823.503 208.989 824.1 208.744C824.698 208.488 824.996 208.12 824.996 207.64C824.996 207.181 824.692 206.824 824.084 206.568C823.487 206.312 822.65 206.184 821.572 206.184C820.495 206.184 819.652 206.312 819.044 206.568C818.436 206.824 818.132 207.181 818.132 207.64ZM839.109 197.576V196.04H840.485V197.576H843.957V198.696H835.637V197.576H839.109ZM836.421 201.944C836.421 201.176 836.73 200.557 837.349 200.088C837.968 199.619 838.784 199.384 839.797 199.384C840.81 199.384 841.626 199.619 842.245 200.088C842.864 200.557 843.173 201.176 843.173 201.944C843.173 202.712 842.864 203.325 842.245 203.784C841.626 204.243 840.81 204.472 839.797 204.472C838.784 204.472 837.968 204.243 837.349 203.784C836.73 203.325 836.421 202.712 836.421 201.944ZM837.381 205.672H846.549V210.216H845.157V206.792H837.381V205.672ZM837.733 201.944C837.733 202.381 837.92 202.739 838.293 203.016C838.677 203.283 839.178 203.416 839.797 203.416C840.405 203.416 840.896 203.283 841.269 203.016C841.653 202.739 841.845 202.381 841.845 201.944C841.845 201.496 841.653 201.139 841.269 200.872C840.896 200.595 840.405 200.456 839.797 200.456C839.178 200.456 838.677 200.595 838.293 200.872C837.92 201.139 837.733 201.496 837.733 201.944ZM845.157 196.136H846.549V199.976H848.613V201.128H846.549V204.936H845.157V196.136ZM867.269 197.512V199.032C867.269 200.237 867.243 201.293 867.189 202.2C867.136 203.096 866.997 204.136 866.773 205.32L865.413 205.16C865.627 204.051 865.76 203.048 865.813 202.152C865.867 201.256 865.893 200.216 865.893 199.032V198.648H857.285V197.512H867.269ZM855.989 207.112H859.045V202.504H860.421V207.112H862.533V202.504H863.909V207.112H868.725V208.264H855.989V207.112ZM892.141 203.032V201.48H888.077V196.776H897.613V197.896H889.437V200.36H897.709V201.48H893.501V203.032H899.197V204.152H886.477V203.032H892.141ZM887.981 207.656C887.981 206.856 888.408 206.237 889.261 205.8C890.114 205.352 891.298 205.128 892.813 205.128C894.328 205.128 895.512 205.352 896.365 205.8C897.218 206.237 897.645 206.856 897.645 207.656C897.645 208.467 897.218 209.091 896.365 209.528C895.512 209.976 894.328 210.2 892.813 210.2C891.288 210.2 890.098 209.976 889.245 209.528C888.402 209.091 887.981 208.467 887.981 207.656ZM889.373 207.656C889.373 208.136 889.672 208.504 890.269 208.76C890.877 209.005 891.725 209.128 892.813 209.128C893.901 209.128 894.744 209.005 895.341 208.76C895.938 208.504 896.237 208.136 896.237 207.656C896.237 207.197 895.938 206.84 895.341 206.584C894.744 206.328 893.901 206.2 892.813 206.2C891.725 206.2 890.877 206.328 890.269 206.584C889.672 206.84 889.373 207.197 889.373 207.656ZM910.605 197.192C911.288 197.192 911.896 197.395 912.429 197.8C912.973 198.205 913.395 198.781 913.693 199.528C913.992 200.264 914.141 201.128 914.141 202.12C914.141 203.101 913.992 203.965 913.693 204.712C913.395 205.459 912.973 206.035 912.429 206.44C911.896 206.845 911.288 207.048 910.605 207.048C909.912 207.048 909.293 206.845 908.749 206.44C908.216 206.035 907.795 205.459 907.485 204.712C907.187 203.965 907.037 203.101 907.037 202.12C907.037 201.128 907.187 200.264 907.485 199.528C907.795 198.781 908.216 198.205 908.749 197.8C909.293 197.395 909.912 197.192 910.605 197.192ZM908.365 202.12C908.365 202.867 908.456 203.517 908.637 204.072C908.829 204.627 909.096 205.059 909.437 205.368C909.779 205.667 910.168 205.816 910.605 205.816C911.043 205.816 911.427 205.667 911.757 205.368C912.099 205.059 912.36 204.627 912.541 204.072C912.733 203.507 912.829 202.856 912.829 202.12C912.829 201.384 912.733 200.739 912.541 200.184C912.36 199.619 912.099 199.187 911.757 198.888C911.427 198.589 911.043 198.44 910.605 198.44C910.168 198.44 909.779 198.589 909.437 198.888C909.096 199.187 908.829 199.619 908.637 200.184C908.456 200.739 908.365 201.384 908.365 202.12ZM916.317 196.136H917.709V201.72H919.981V202.872H917.709V210.216H916.317V196.136ZM938.798 196.104V210.232H937.406V196.104H938.798ZM927.998 197.432H934.526V202.504H929.422V205.688C930.638 205.688 931.769 205.651 932.814 205.576C933.87 205.501 934.974 205.373 936.126 205.192L936.27 206.328C935.097 206.52 933.966 206.653 932.878 206.728C931.79 206.792 930.569 206.824 929.214 206.824H928.03V201.384H933.134V198.552H927.998V197.432ZM967.91 199.976V196.136H969.302V206.424H967.91V201.112H965.174V199.976H967.91ZM957.718 203.576C958.411 203.331 959.024 202.973 959.558 202.504C960.091 202.035 960.502 201.496 960.79 200.888C961.088 200.28 961.238 199.651 961.238 199V198.376H958.134V197.24H965.67V198.376H962.63V198.984C962.63 199.581 962.768 200.163 963.046 200.728C963.323 201.293 963.718 201.8 964.23 202.248C964.752 202.696 965.35 203.037 966.022 203.272L965.318 204.36C964.539 204.072 963.862 203.656 963.286 203.112C962.71 202.568 962.267 201.933 961.958 201.208C961.648 202.008 961.19 202.712 960.582 203.32C959.984 203.928 959.27 204.381 958.438 204.68L957.718 203.576ZM960.262 205.544H961.654V208.776H969.686V209.896H960.262V205.544ZM983.126 197.336V199.784C983.126 200.627 983.286 201.459 983.606 202.28C983.937 203.101 984.385 203.832 984.95 204.472C985.515 205.112 986.145 205.592 986.838 205.912L986.022 207.032C985.222 206.637 984.507 206.056 983.878 205.288C983.259 204.52 982.785 203.64 982.454 202.648C982.134 203.704 981.654 204.643 981.014 205.464C980.385 206.275 979.654 206.888 978.822 207.304L977.974 206.152C978.678 205.821 979.318 205.325 979.894 204.664C980.47 204.003 980.918 203.245 981.238 202.392C981.569 201.539 981.734 200.669 981.734 199.784V197.336H983.126ZM988.214 196.104H989.606V210.232H988.214V196.104ZM1009.96 196.136V210.216H1008.58V196.136H1009.96ZM998.534 206.408C1000.2 206.408 1001.49 206.392 1002.41 206.36V204.888C1001.57 204.781 1000.91 204.504 1000.42 204.056C999.942 203.597 999.702 203.021 999.702 202.328C999.702 201.539 1000.01 200.909 1000.63 200.44C1001.25 199.96 1002.07 199.72 1003.09 199.72C1004.11 199.72 1004.93 199.96 1005.56 200.44C1006.19 200.909 1006.5 201.539 1006.5 202.328C1006.5 203.021 1006.26 203.597 1005.77 204.056C1005.28 204.504 1004.62 204.781 1003.8 204.888V206.312C1005.17 206.248 1006.48 206.136 1007.7 205.976L1007.8 207C1006.41 207.245 1004.99 207.405 1003.53 207.48C1002.07 207.544 1000.47 207.576 998.726 207.576L998.534 206.408ZM998.822 197.832H1002.41V196.136H1003.8V197.832H1007.37V198.936H998.822V197.832ZM1001.01 202.328C1001.01 202.797 1001.21 203.171 1001.59 203.448C1001.97 203.725 1002.48 203.864 1003.09 203.864C1003.72 203.864 1004.23 203.725 1004.6 203.448C1004.98 203.171 1005.17 202.797 1005.17 202.328C1005.17 201.859 1004.98 201.485 1004.6 201.208C1004.23 200.92 1003.72 200.776 1003.09 200.776C1002.48 200.776 1001.97 200.92 1001.59 201.208C1001.21 201.485 1001.01 201.859 1001.01 202.328Z" fill="#FFFEFF"/>
</g>
<defs>
<radialGradient id="paint0_radial_731_7" cx="0" cy="0" r="1" gradientUnits="userSpaceOnUse" gradientTransform="translate(832.5 830) rotate(-95.266) scale(833.518 1575.35)">
<stop stop-color="#394A9C"/>
<stop offset="1" stop-color="#5A69B0"/>
</radialGradient>
<radialGradient id="paint1_radial_731_7" cx="0" cy="0" r="1" gradientUnits="userSpaceOnUse" gradientTransform="translate(822 455) rotate(-90) scale(179 584.41)">
<stop stop-color="#CACDE0"/>
<stop offset="1" stop-color="#FFFEFF"/>
</radialGradient>
<radialGradient id="paint2_radial_731_7" cx="0" cy="0" r="1" gradientUnits="userSpaceOnUse" gradientTransform="translate(822 455) rotate(-90) scale(179 584.41)">
<stop stop-color="#CACDE0"/>
<stop offset="1" stop-color="#FFFEFF"/>
</radialGradient>
<radialGradient id="paint3_radial_731_7" cx="0" cy="0" r="1" gradientUnits="userSpaceOnUse" gradientTransform="translate(822 455) rotate(-90) scale(179 584.41)">
<stop stop-color="#CACDE0"/>
<stop offset="1" stop-color="#FFFEFF"/>
</radialGradient>
<radialGradient id="paint4_radial_731_7" cx="0" cy="0" r="1" gradientUnits="userSpaceOnUse" gradientTransform="translate(822 455) rotate(-90) scale(179 584.41)">
<stop stop-color="#CACDE0"/>
<stop offset="1" stop-color="#FFFEFF"/>
</radialGradient>
<radialGradient id="paint5_radial_731_7" cx="0" cy="0" r="1" gradientUnits="userSpaceOnUse" gradientTransform="translate(822 455) rotate(-90) scale(179 584.41)">
<stop stop-color="#CACDE0"/>
<stop offset="1" stop-color="#FFFEFF"/>
</radialGradient>
<radialGradient id="paint6_radial_731_7" cx="0" cy="0" r="1" gradientUnits="userSpaceOnUse" gradientTransform="translate(822 455) rotate(-90) scale(179 584.41)">
<stop stop-color="#CACDE0"/>
<stop offset="1" stop-color="#FFFEFF"/>
</radialGradient>
<radialGradient id="paint7_radial_731_7" cx="0" cy="0" r="1" gradientUnits="userSpaceOnUse" gradientTransform="translate(822 455) rotate(-90) scale(179 584.41)">
<stop stop-color="#CACDE0"/>
<stop offset="1" stop-color="#FFFEFF"/>
</radialGradient>
<radialGradient id="paint8_radial_731_7" cx="0" cy="0" r="1" gradientUnits="userSpaceOnUse" gradientTransform="translate(822 455) rotate(-90) scale(179 584.41)">
<stop stop-color="#CACDE0"/>
<stop offset="1" stop-color="#FFFEFF"/>
</radialGradient>
<clipPath id="clip0_731_7">
<rect width="1512" height="800" fill="white"/>
</clipPath>
</defs>
</svg>
