<svg width="20" height="20" viewBox="0 0 20 20" fill="none" xmlns="http://www.w3.org/2000/svg">
<mask id="mask0_731_40" style="mask-type:alpha" maskUnits="userSpaceOnUse" x="0" y="0" width="20" height="20">
<rect width="20" height="20" fill="#D9D9D9"/>
</mask>
<g mask="url(#mask0_731_40)">
<path d="M7.60413 17.5834L0.583293 10.5834C0.499959 10.5 0.440932 10.4097 0.406209 10.3125C0.371487 10.2153 0.354126 10.1111 0.354126 10C0.354126 9.88891 0.371487 9.78474 0.406209 9.68752C0.440932 9.5903 0.499959 9.50002 0.583293 9.41669L7.60413 2.39585C7.79857 2.20141 8.04163 2.10419 8.33329 2.10419C8.62496 2.10419 8.87496 2.20835 9.08329 2.41669C9.29163 2.62502 9.39579 2.86808 9.39579 3.14585C9.39579 3.42363 9.29163 3.66669 9.08329 3.87502L2.95829 10L9.08329 16.125C9.27774 16.3195 9.37496 16.559 9.37496 16.8438C9.37496 17.1285 9.27079 17.375 9.06246 17.5834C8.85413 17.7917 8.61107 17.8959 8.33329 17.8959C8.05551 17.8959 7.81246 17.7917 7.60413 17.5834Z" fill="#AEB4D4"/>
</g>
</svg>
