<svg width="1512" height="800" viewBox="0 0 1512 800" fill="none" xmlns="http://www.w3.org/2000/svg">
<g clip-path="url(#clip0_137_3)">
<rect width="1512" height="800" fill="#E3E5EF"/>
<path d="M0 416.838V270.779C91.3231 270.779 132.512 218.353 254 218C386.344 218.18 504.763 388.834 620.5 379C697 372.5 771.5 445 835 445C936 445 985.5 434 1059.5 414C1151.43 389.153 1213.5 280.88 1307.5 267.5C1444.5 248 1512 304.875 1512 304.875V783.013H0V416.838Z" fill="#CACDE0"/>
<path d="M808.203 500.628V503.84H804.199V522.056C806.164 521.909 808.042 521.733 809.831 521.528L810.051 524.476C806.472 525.063 802.703 525.459 798.743 525.664C794.783 525.84 790.574 525.928 786.115 525.928L785.675 522.584H790.559V503.84H786.599V500.628H808.203ZM794.519 522.496C797.1 522.437 799.022 522.379 800.283 522.32V503.84H794.519V522.496ZM812.031 496.58H816.079V511.892H822.239V515.236H816.079V535.388H812.031V496.58ZM854.492 499.528V502.784H832.096V514.444H854.888V517.744H843.228V527.248H858.848V530.592H823.692V527.248H839.224V517.744H828.092V499.528H854.492ZM883.818 499.836V506.436C883.818 508.724 884.228 510.983 885.05 513.212C885.871 515.441 887.015 517.436 888.482 519.196C889.948 520.956 891.62 522.305 893.498 523.244L891.078 526.412C888.995 525.327 887.162 523.757 885.578 521.704C883.994 519.651 882.776 517.304 881.926 514.664C881.016 517.48 879.74 519.988 878.098 522.188C876.455 524.388 874.548 526.045 872.378 527.16L869.958 523.904C871.864 522.965 873.566 521.587 875.062 519.768C876.587 517.92 877.775 515.837 878.626 513.52C879.476 511.173 879.902 508.812 879.902 506.436V499.836H883.818ZM896.446 496.58H900.494V512.068H906.698V515.456H900.494V535.388H896.446V496.58ZM939.919 496.492V535.432H935.915V496.492H939.919ZM909.427 513.08C909.427 510.352 909.852 507.961 910.703 505.908C911.553 503.855 912.727 502.271 914.223 501.156C915.719 500.041 917.435 499.484 919.371 499.484C921.277 499.484 922.979 500.041 924.475 501.156C926 502.271 927.188 503.855 928.039 505.908C928.889 507.961 929.315 510.352 929.315 513.08C929.315 515.808 928.889 518.213 928.039 520.296C927.188 522.349 926 523.933 924.475 525.048C922.979 526.163 921.277 526.72 919.371 526.72C917.435 526.72 915.719 526.163 914.223 525.048C912.727 523.933 911.553 522.349 910.703 520.296C909.852 518.213 909.427 515.808 909.427 513.08ZM913.299 513.08C913.299 515.104 913.548 516.879 914.047 518.404C914.575 519.9 915.293 521.059 916.203 521.88C917.141 522.701 918.197 523.112 919.371 523.112C920.544 523.112 921.585 522.701 922.495 521.88C923.433 521.059 924.152 519.9 924.651 518.404C925.179 516.879 925.443 515.104 925.443 513.08C925.443 511.056 925.179 509.296 924.651 507.8C924.152 506.275 923.433 505.116 922.495 504.324C921.585 503.503 920.544 503.092 919.371 503.092C918.197 503.092 917.141 503.503 916.203 504.324C915.293 505.116 914.575 506.275 914.047 507.8C913.548 509.296 913.299 511.056 913.299 513.08ZM961.216 527.38V520.428H949.996V508.152H972.612V502.564H949.908V499.308H976.616V511.32H953.956V517.172H977.496V520.428H965.22V527.38H980.84V530.68H945.684V527.38H961.216Z" fill="#394A9C"/>
<path d="M0 301.004C80.547 300.543 111.611 371.5 257 371.5C402.389 371.5 419.977 442.5 523.5 442.5C640.843 442.5 626.109 526.706 848.5 534.5C1186.48 546.344 1193.12 359.363 1282.83 341.376C1347.71 328.366 1371.37 366.686 1422.17 366.686C1472.98 366.686 1512 328.353 1512 328.353V896.431H0V301.004Z" fill="#AEB4D4"/>
<path d="M765.498 615.12V602.36H770.206V641.608H765.498V618.904H757.314V615.12H765.498ZM737.338 629.684C739.362 628.716 741.108 627.308 742.574 625.46C744.07 623.583 745.214 621.456 746.006 619.08C746.798 616.704 747.194 614.284 747.194 611.82V605.528H751.946V611.82C751.946 614.255 752.328 616.616 753.09 618.904C753.853 621.192 754.953 623.231 756.39 625.02C757.828 626.78 759.544 628.115 761.538 629.024L758.766 632.808C756.625 631.752 754.777 630.241 753.222 628.276C751.668 626.311 750.45 624.008 749.57 621.368C748.69 624.125 747.458 626.56 745.874 628.672C744.29 630.784 742.428 632.383 740.286 633.468L737.338 629.684ZM797.971 605.528V609.312H794.583V619.564C796.373 619.417 798.059 619.241 799.643 619.036L799.995 622.512C794.041 623.539 786.179 624.052 776.411 624.052L775.927 620.136H780.371V609.312H776.983V605.528H797.971ZM781.251 634.172C781.251 631.884 782.425 630.109 784.771 628.848C787.147 627.587 790.403 626.956 794.539 626.956C798.646 626.956 801.873 627.587 804.219 628.848C806.595 630.109 807.783 631.884 807.783 634.172C807.783 636.489 806.61 638.279 804.263 639.54C801.917 640.831 798.675 641.476 794.539 641.476C790.403 641.476 787.147 640.831 784.771 639.54C782.425 638.279 781.251 636.489 781.251 634.172ZM790.007 619.872V609.312H784.903V620.048L790.007 619.872ZM785.959 634.172C785.959 635.375 786.693 636.299 788.159 636.944C789.626 637.56 791.753 637.868 794.539 637.868C797.297 637.868 799.409 637.56 800.875 636.944C802.342 636.299 803.075 635.375 803.075 634.172C803.075 632.999 802.342 632.104 800.875 631.488C799.409 630.872 797.297 630.564 794.539 630.564C791.753 630.564 789.626 630.872 788.159 631.488C786.693 632.104 785.959 632.999 785.959 634.172ZM802.811 602.448H807.563V626.164H802.811V602.448ZM830.533 603.02C834.933 603.02 838.365 603.607 840.829 604.78C843.293 605.924 844.525 607.567 844.525 609.708C844.525 611.879 843.293 613.551 840.829 614.724C838.394 615.868 834.962 616.44 830.533 616.44C826.103 616.44 822.657 615.868 820.193 614.724C817.758 613.551 816.541 611.879 816.541 609.708C816.541 607.567 817.758 605.924 820.193 604.78C822.657 603.607 826.103 603.02 830.533 603.02ZM812.845 618.64H848.177V622.38H812.845V618.64ZM816.981 625.064H843.777V634.568H821.733V637.604H844.921V641.212H817.069V631.268H839.157V628.628H816.981V625.064ZM821.425 609.708C821.425 611.879 824.461 612.964 830.533 612.964C836.605 612.964 839.641 611.879 839.641 609.708C839.641 608.652 838.863 607.86 837.309 607.332C835.754 606.775 833.495 606.496 830.533 606.496C827.57 606.496 825.311 606.775 823.757 607.332C822.202 607.86 821.425 608.652 821.425 609.708Z" fill="#5A69B0"/>
<path d="M-1 361.002C79.547 360.569 48.6384 440.245 191.896 440.245C335.154 440.245 353.598 532.327 457.119 532.327C574.462 532.327 604.167 639.814 798 641.5C956.5 642.879 944.985 544.325 1075.9 544.325C1206.81 544.325 1255.24 412.622 1314.4 412.622C1372.7 412.622 1368.23 449.635 1419.03 449.635C1469.83 449.635 1511 412.622 1511 412.622V983.509H-1V361.002Z" fill="#7F8ABD"/>
<path d="M779.437 686.924V691.236H774.729V708.396C776.489 708.337 778.059 708.147 779.437 707.824L779.965 712.224C778.675 712.517 777.428 712.708 776.225 712.796C775.023 712.855 773.395 712.884 771.341 712.884H769.361V686.924H779.437ZM781.329 686.924H792.065V691.236H786.697V708.44C788.135 708.381 789.337 708.308 790.305 708.22C791.273 708.103 792.256 707.927 793.253 707.692L793.693 712.092C792.285 712.444 790.892 712.664 789.513 712.752C788.164 712.84 786.169 712.884 783.529 712.884H781.329V686.924ZM790.437 697H796.421V683.272H801.833V722.696H796.421V701.444H790.437V697ZM836.902 683.184V698.232H842.446V702.72H836.902V722.652H831.446V683.184H836.902ZM807.334 687.012H812.746V708.484C818.29 708.396 823.644 707.839 828.806 706.812L829.378 711.256C823.834 712.4 817.601 712.972 810.678 712.972H807.334V687.012ZM858.727 713.588V706.24H847.463V685.736H852.875V691.896H870.035V685.736H875.447V706.24H864.183V713.588H879.363V718.032H843.679V713.588H858.727ZM870.035 701.884V696.208H852.875V701.884H870.035ZM901.805 696.604V683.888H906.865V720.848H901.805V701.048H896.701V696.604H901.805ZM880.465 710.684C883.193 709.012 885.202 706.636 886.493 703.556C887.783 700.447 888.429 697.059 888.429 693.392V686.704H893.665V693.172C893.665 696.692 894.222 699.904 895.337 702.808C896.481 705.712 898.314 707.985 900.837 709.628L897.845 713.896C894.735 711.96 892.477 708.777 891.069 704.348C889.573 709.188 887.138 712.649 883.765 714.732L880.465 710.684ZM909.813 683.228H915.005V722.652H909.813V683.228ZM926.754 713.588V703.864C925.228 702.925 924.04 701.767 923.19 700.388C922.339 698.98 921.914 697.425 921.914 695.724C921.914 693.641 922.544 691.808 923.806 690.224C925.067 688.611 926.812 687.379 929.042 686.528C931.271 685.648 933.794 685.208 936.61 685.208C939.426 685.208 941.948 685.648 944.178 686.528C946.407 687.379 948.152 688.611 949.414 690.224C950.675 691.808 951.306 693.641 951.306 695.724C951.306 697.396 950.88 698.936 950.03 700.344C949.208 701.723 948.05 702.881 946.554 703.82V713.588H954.518V718.032H918.834V713.588H926.754ZM927.326 695.724C927.326 697.689 928.162 699.229 929.834 700.344C931.535 701.459 933.794 702.016 936.61 702.016C939.426 702.016 941.684 701.459 943.386 700.344C945.087 699.229 945.938 697.689 945.938 695.724C945.938 693.759 945.087 692.219 943.386 691.104C941.684 689.989 939.426 689.432 936.61 689.432C933.794 689.432 931.535 689.989 929.834 691.104C928.162 692.219 927.326 693.759 927.326 695.724ZM941.098 713.588V705.844C939.748 706.137 938.252 706.284 936.61 706.284C935.055 706.284 933.588 706.152 932.21 705.888V713.588H941.098Z" fill="#E3E5EF"/>
<path d="M0 511.307C80.547 510.907 107.64 601.586 240.287 601.586C437.833 601.586 597.427 722 858.5 722C1163.93 722 1147.5 540 1302.56 540C1417 540 1392.07 489 1512 489V1092.3H0V511.307Z" fill="#5A69B0"/>
</g>
<defs>
<clipPath id="clip0_137_3">
<rect width="1512" height="800" fill="white"/>
</clipPath>
</defs>
</svg>
