<svg width="20" height="20" viewBox="0 0 20 20" fill="none" xmlns="http://www.w3.org/2000/svg">
<mask id="mask0_731_29" style="mask-type:alpha" maskUnits="userSpaceOnUse" x="0" y="0" width="20" height="20">
<rect width="20" height="20" fill="#D9D9D9"/>
</mask>
<g mask="url(#mask0_731_29)">
<path d="M7.32858 8.84612C7.04312 8.84612 6.82592 8.71711 6.67697 8.4591C6.52804 8.2011 6.53317 7.94656 6.69237 7.69549L9.35579 3.33016C9.50109 3.08763 9.71583 2.96637 10 2.96637C10.2842 2.96637 10.4989 3.08763 10.6442 3.33016L13.3077 7.69549C13.4669 7.94656 13.472 8.2011 13.3231 8.4591C13.1741 8.71711 12.9569 8.84612 12.6715 8.84612H7.32858ZM14.5833 18.0128C13.6272 18.0128 12.8165 17.6803 12.1515 17.0152C11.4864 16.3501 11.1539 15.5395 11.1539 14.5833C11.1539 13.6271 11.4864 12.8165 12.1515 12.1515C12.8165 11.4864 13.6272 11.1539 14.5833 11.1539C15.5395 11.1539 16.3502 11.4864 17.0152 12.1515C17.6803 12.8165 18.0128 13.6271 18.0128 14.5833C18.0128 15.5395 17.6803 16.3501 17.0152 17.0152C16.3502 17.6803 15.5395 18.0128 14.5833 18.0128ZM3.57187 17.5961C3.35838 17.5961 3.17979 17.5239 3.0361 17.3795C2.8924 17.2351 2.82056 17.0561 2.82056 16.8427V12.3218C2.82056 12.1084 2.89276 11.9298 3.03718 11.7861C3.18158 11.6424 3.36053 11.5705 3.57401 11.5705H8.09483C8.30831 11.5705 8.4869 11.6427 8.6306 11.7872C8.77429 11.9316 8.84614 12.1105 8.84614 12.324V16.8448C8.84614 17.0583 8.77393 17.2369 8.62952 17.3806C8.48511 17.5243 8.30617 17.5961 8.09268 17.5961H3.57187ZM14.5831 16.7628C15.1933 16.7628 15.7091 16.5522 16.1306 16.1308C16.5521 15.7095 16.7628 15.1938 16.7628 14.5836C16.7628 13.9734 16.5522 13.4575 16.1308 13.0361C15.7095 12.6146 15.1938 12.4038 14.5836 12.4038C13.9734 12.4038 13.4576 12.6145 13.0361 13.0358C12.6146 13.4571 12.4038 13.9729 12.4038 14.5831C12.4038 15.1933 12.6145 15.7091 13.0358 16.1306C13.4572 16.5521 13.9729 16.7628 14.5831 16.7628ZM4.07051 16.3462H7.59618V12.8205H4.07051V16.3462ZM8.19872 7.59616H11.8013L10 4.6987L8.19872 7.59616Z" fill="#7F8ABD"/>
</g>
</svg>
