<svg width="20" height="20" viewBox="0 0 20 20" fill="none" xmlns="http://www.w3.org/2000/svg">
<path d="M12.8081 18H7.19186C5.81554 17.9979 4.4962 17.4502 3.523 16.477C2.54979 15.5037 2.00212 14.1844 2 12.808V7.192C2.00212 5.81564 2.54979 4.49627 3.523 3.52304C4.4962 2.54981 5.81554 2.00212 7.19186 2H12.8081C14.1845 2.00212 15.5038 2.54981 16.477 3.52304C17.4502 4.49627 17.9979 5.81564 18 7.192V12.8076C17.998 14.184 17.4504 15.5035 16.4772 16.4768C15.5039 17.4501 14.1845 17.9979 12.8081 18ZM7.19275 3.52134C6.21946 3.52239 5.28634 3.90951 4.59812 4.59774C3.9099 5.28598 3.5228 6.21913 3.52174 7.19244V12.808C3.5228 13.7813 3.9099 14.7145 4.59812 15.4027C5.28634 16.0909 6.21946 16.4781 7.19275 16.4791H12.8081C13.7814 16.4781 14.7146 16.0909 15.4028 15.4027C16.091 14.7145 16.4781 13.7813 16.4792 12.808V7.192C16.4781 6.21868 16.091 5.28554 15.4028 4.5973C14.7146 3.90907 13.7814 3.52195 12.8081 3.52089L7.19275 3.52134Z" fill="#7F8ABD"/>
<path d="M9.99981 14.0689C8.9211 14.0676 7.88694 13.6385 7.12418 12.8758C6.36141 12.113 5.93232 11.0788 5.93103 10C5.93232 8.9213 6.36141 7.88712 7.12418 7.12434C7.88694 6.36155 8.9211 5.93245 9.99981 5.93115C11.0785 5.93245 12.1127 6.36155 12.8754 7.12434C13.6382 7.88712 14.0673 8.9213 14.0686 10C14.0673 11.0788 13.6382 12.113 12.8754 12.8758C12.1127 13.6385 11.0785 14.0676 9.99981 14.0689ZM9.99981 7.46316C9.32737 7.46398 8.68271 7.73147 8.20723 8.20697C7.73175 8.68247 7.46426 9.32715 7.46343 9.9996C7.46426 10.6721 7.73175 11.3167 8.20723 11.7922C8.68271 12.2677 9.32737 12.5352 9.99981 12.536C10.6723 12.5353 11.3171 12.2679 11.7927 11.7924C12.2683 11.3169 12.5358 10.6721 12.5366 9.9996C12.5357 9.32715 12.2681 8.68251 11.7925 8.2071C11.3169 7.73169 10.6722 7.46431 9.99981 7.4636V7.46316Z" fill="#7F8ABD"/>
<path d="M14.1836 6.85728C14.6905 6.85728 15.1014 6.44638 15.1014 5.93951C15.1014 5.43263 14.6905 5.02173 14.1836 5.02173C13.6768 5.02173 13.2659 5.43263 13.2659 5.93951C13.2659 6.44638 13.6768 6.85728 14.1836 6.85728Z" fill="#7F8ABD"/>
</svg>
