<svg width="966" height="34" viewBox="0 0 966 34" fill="none" xmlns="http://www.w3.org/2000/svg">
<path d="M3 17C19 -1.66667 35 -1.66667 51 17C67 35.6667 83 35.6667 99 17C115 -1.66667 131 -1.66667 147 17C163 35.6667 179 35.6667 195 17C211 -1.66667 227 -1.66667 243 17C259 35.6667 275 35.6667 291 17C307 -1.66667 323 -1.66667 339 17C355 35.6667 371 35.6667 387 17C403 -1.66667 419 -1.66667 435 17C451 35.6667 467 35.6667 483 17C499 -1.66667 515 -1.66667 531 17C547 35.6667 563 35.6667 579 17C595 -1.66667 611 -1.66667 627 17C643 35.6667 659 35.6667 675 17C691 -1.66667 707 -1.66667 723 17C739 35.6667 755 35.6667 771 17C787 -1.66667 803 -1.66667 819 17C835 35.6667 851 35.6667 867 17C883 -1.66667 899 -1.66667 915 17C931 35.6667 947 35.6667 963 17" stroke="#CACDE0" stroke-width="6" stroke-linecap="round"/>
</svg>
