<svg width="92" height="28" viewBox="0 0 92 28" fill="none" xmlns="http://www.w3.org/2000/svg">
<path d="M6.5548 22.039C5.09361 22.039 3.72375 21.5994 2.44521 20.7204C1.75114 20.2076 1.10274 19.3744 0.5 18.2206L3.21233 16.7372C3.44977 17.2683 3.78767 17.6895 4.22603 18.0008C4.73745 18.3488 5.1758 18.5869 5.5411 18.7151C5.9064 18.8249 6.34475 18.8799 6.85617 18.8799C7.2032 18.8616 7.5411 18.7792 7.86987 18.6327C8.18037 18.5228 8.40868 18.3671 8.5548 18.1657C8.66439 18.0008 8.71918 17.8452 8.71918 17.6987C8.71918 17.5155 8.62786 17.3507 8.44521 17.2042C8.28083 17.076 8.07078 16.9661 7.81507 16.8746C7.55937 16.7647 7.19407 16.6273 6.71918 16.4625L5.89726 16.1603L4.88357 15.7758C4.5 15.6292 4.19863 15.5011 3.97946 15.3912C3.76028 15.263 3.5137 15.1073 3.23973 14.9242C2.71005 14.5945 2.30822 14.2191 2.03425 13.7979C1.77854 13.4683 1.56849 13.0837 1.40411 12.6441C1.25799 12.2046 1.18493 11.7559 1.18493 11.2981C1.18493 10.6205 1.34018 9.97954 1.65069 9.37519C2.07078 8.5694 2.70092 8.00168 3.5411 7.67204C4.38128 7.32408 5.21233 7.15011 6.03425 7.15011C6.72832 7.15011 7.44978 7.25083 8.19864 7.45228C8.96576 7.65373 9.66896 7.99252 10.3082 8.46868C10.7831 8.85326 11.1393 9.21037 11.3767 9.54001L8.80138 11.4355C8.72832 11.3256 8.61873 11.2157 8.47261 11.1058C7.77854 10.6114 6.91096 10.3458 5.86987 10.3092C5.1758 10.3458 4.70092 10.5381 4.44521 10.8861C4.35388 11.0142 4.30822 11.1608 4.30822 11.3256C4.30822 11.4721 4.35388 11.6186 4.44521 11.7651C4.51827 11.9116 4.69178 12.0764 4.96576 12.2596C5.36758 12.5343 5.74201 12.7266 6.08905 12.8364L7.07535 13.1936C8.26256 13.5964 9.13928 13.9627 9.70549 14.2924C10.2717 14.622 10.7009 14.97 10.9932 15.3362C11.5594 16.0321 11.8425 16.8379 11.8425 17.7536C11.8425 18.4129 11.6598 19.0722 11.2945 19.7315C10.8379 20.464 10.1073 21.0683 9.10275 21.5445C8.73745 21.7093 8.31736 21.8284 7.84247 21.9016C7.38585 21.9932 6.95663 22.039 6.5548 22.039Z" fill="#394A9C"/>
<path d="M16.6371 15.1439C16.6371 16.1695 16.9202 16.9936 17.4865 17.6163C18.0709 18.2389 18.9385 18.5502 20.0892 18.5502C21.112 18.5502 21.9522 18.2114 22.6098 17.5338C23.2673 16.8562 23.5869 16.023 23.5687 15.0341V7.25998H26.8289V21.7917H23.5687V19.5941C23.0755 20.3083 22.4819 20.8577 21.7878 21.2423C21.0938 21.6086 20.3632 21.7917 19.596 21.7917C18.4819 21.7917 17.4499 21.5628 16.5002 21.105C15.5686 20.6288 14.8107 19.8963 14.2262 18.9074C13.66 17.9184 13.3769 16.6914 13.3769 15.2263V7.31493H16.6371V15.1439Z" fill="#394A9C"/>
<path d="M31.6123 9.86966C32.0506 9.02724 32.7081 8.37711 33.5849 7.91927C34.4798 7.44312 35.2926 7.20505 36.0232 7.20505V10.3367C35.2013 10.3367 34.4524 10.5473 33.7766 10.9685C33.1008 11.3897 32.5712 11.9208 32.1876 12.5617C31.804 13.2027 31.6123 13.8437 31.6123 14.4847V21.7917H28.352V7.25998H31.6123V9.86966Z" fill="#394A9C"/>
<path d="M40.2391 21.9291V10.5289H37.8282V7.28746H40.2391V5.14478C40.2391 4.28405 40.4492 3.47825 40.8693 2.7274C41.2893 1.95823 41.8464 1.33558 42.5405 0.859426C43.2528 0.364962 44.0291 0.0811025 44.8693 0.00784847C45.472 -0.028778 46.1204 0.0627893 46.8145 0.28255C47.5268 0.483999 48.093 0.731231 48.5131 1.02425L46.5953 3.82621C46.4309 3.71633 46.2209 3.62476 45.9651 3.55151C45.7094 3.45994 45.4537 3.41416 45.198 3.41416C44.6866 3.41416 44.2939 3.56982 44.0199 3.88115C43.7642 4.17416 43.6364 4.59537 43.6364 5.14478V7.28746H47.9378V10.5289H43.6364V21.9291H40.2391Z" fill="#394A9C"/>
<path d="M53.1959 7.20505V21.8741H49.9904V7.20505H53.1959ZM49.7986 1.9857C49.7986 1.47293 49.9539 1.05172 50.2644 0.722075C50.5931 0.374119 51.0315 0.200141 51.5794 0.200141C52.1457 0.200141 52.584 0.374119 52.8945 0.722075C53.2233 1.05172 53.3877 1.47293 53.3877 1.9857C53.3877 2.5168 53.2233 2.95632 52.8945 3.30427C52.584 3.63392 52.1457 3.79874 51.5794 3.79874C51.0132 3.79874 50.5749 3.63392 50.2644 3.30427C49.9539 2.95632 49.7986 2.5168 49.7986 1.9857Z" fill="#394A9C"/>
<path d="M65.442 13.9627C65.442 12.9189 65.1497 12.0856 64.5653 11.4629C63.9991 10.8403 63.1406 10.5289 61.9899 10.5289C61.3506 10.5289 60.757 10.6938 60.2091 11.0234C59.6794 11.3347 59.2593 11.7651 58.9488 12.3145C58.6383 12.8456 58.4922 13.4316 58.5105 14.0726V21.7917H55.2502V7.31493H58.5105V9.51254C58.9853 8.83494 59.579 8.30385 60.2913 7.91927C61.0219 7.51637 61.7525 7.31493 62.4831 7.31493C64.2913 7.31493 65.7799 7.86433 66.9488 8.96314C68.1178 10.0619 68.7022 11.701 68.7022 13.8803V21.7917H65.442V13.9627Z" fill="#394A9C"/>
<path d="M77.8397 18.7151C78.5155 18.7151 79.1456 18.5319 79.7301 18.1657C80.3146 17.7994 80.7803 17.2958 81.1273 16.6548C81.4744 16.0138 81.6479 15.3088 81.6479 14.5396C81.6479 13.7887 81.4744 13.102 81.1273 12.4793C80.7803 11.8567 80.3146 11.3622 79.7301 10.9959C79.1456 10.6297 78.5155 10.4465 77.8397 10.4465C76.5977 10.4465 75.657 10.8311 75.0178 11.6003C74.3785 12.3511 74.0588 13.3309 74.0588 14.5396C74.0588 15.7849 74.3785 16.7922 75.0178 17.5613C75.657 18.3305 76.5977 18.7151 77.8397 18.7151ZM70.7164 14.5671C70.7164 13.1752 70.9812 11.9299 71.5109 10.8311C72.0589 9.7323 72.8534 8.87157 73.8945 8.24891C74.9356 7.60794 76.1684 7.28746 77.5931 7.28746C78.342 7.28746 79.1182 7.46143 79.9219 7.80939C80.7255 8.13903 81.3831 8.70675 81.8945 9.51254V7.20505H85.1821V20.9676C85.1821 22.4327 84.8351 23.6963 84.141 24.7585C83.447 25.8207 82.5155 26.6265 81.3465 27.1759C80.1776 27.7253 78.8716 28 77.4287 28C76.1502 28 74.9356 27.6978 73.7849 27.0935C72.6525 26.5075 71.7483 25.7108 71.0725 24.7036L73.8397 22.8631C74.278 23.5224 74.8351 24.0077 75.5109 24.319C76.1867 24.6303 76.826 24.786 77.4287 24.786C78.1228 24.786 78.8077 24.6669 79.4835 24.4289C80.1593 24.1908 80.7255 23.8154 81.1821 23.3026C81.657 22.8081 81.8945 22.1672 81.8945 21.3797V19.5666C81.31 20.3907 80.6251 20.9859 79.8397 21.3522C79.0543 21.7185 78.3054 21.9016 77.5931 21.9016C76.1684 21.9016 74.9356 21.5903 73.8945 20.9676C72.8534 20.3267 72.0589 19.4568 71.5109 18.358C70.9812 17.2408 70.7164 15.9772 70.7164 14.5671Z" fill="#394A9C"/>
<path d="M89.6644 18.6052C90.2306 18.6052 90.6781 18.7792 91.0068 19.1271C91.3356 19.4751 91.5 19.9146 91.5 20.4457C91.5 20.9951 91.3356 21.4438 91.0068 21.7917C90.6781 22.1397 90.2306 22.3137 89.6644 22.3137C89.0799 22.3137 88.6233 22.1397 88.2945 21.7917C87.9658 21.4438 87.8014 20.9951 87.8014 20.4457C87.8014 19.9146 87.9658 19.4751 88.2945 19.1271C88.6233 18.7792 89.0799 18.6052 89.6644 18.6052Z" fill="#394A9C"/>
</svg>
