<svg width="144" height="44" viewBox="0 0 144 44" fill="none" xmlns="http://www.w3.org/2000/svg">
<path d="M9.58122 34.6327C7.26901 34.6327 5.10131 33.942 3.07813 32.5606C1.97983 31.7548 0.953787 30.4454 0 28.6324L4.29204 26.3013C4.66777 27.1359 5.20247 27.7978 5.89614 28.287C6.70541 28.8338 7.39907 29.2079 7.97713 29.4094C8.55518 29.5821 9.24884 29.6684 10.0581 29.6684C10.6073 29.6396 11.142 29.5101 11.6622 29.2799C12.1536 29.1072 12.5148 28.8626 12.7461 28.546C12.9195 28.287 13.0062 28.0424 13.0062 27.8122C13.0062 27.5244 12.8617 27.2654 12.5726 27.0352C12.3125 26.8337 11.9801 26.6611 11.5755 26.5172C11.1709 26.3445 10.5928 26.1287 9.84135 25.8697L8.54073 25.3948L6.93663 24.7905C6.32968 24.5602 5.85278 24.3588 5.50595 24.1861C5.15912 23.9847 4.76893 23.7401 4.33539 23.4523C3.49722 22.9343 2.86136 22.3443 2.42782 21.6824C2.02318 21.1644 1.6908 20.5601 1.43068 19.8694C1.19946 19.1787 1.08385 18.4736 1.08385 17.7542C1.08385 16.6894 1.32952 15.6821 1.82087 14.7324C2.48563 13.4662 3.48277 12.5741 4.81229 12.0561C6.14181 11.5093 7.45688 11.2359 8.7575 11.2359C9.8558 11.2359 10.9975 11.3942 12.1825 11.7107C13.3964 12.0273 14.5091 12.5597 15.5207 13.3079C16.2722 13.9123 16.8358 14.4734 17.2115 14.9915L13.1362 17.97C13.0206 17.7973 12.8472 17.6247 12.616 17.452C11.5177 16.675 10.1448 16.2577 8.49737 16.2001C7.39907 16.2577 6.6476 16.5599 6.24297 17.1067C6.09845 17.3081 6.0262 17.5383 6.0262 17.7973C6.0262 18.0276 6.09845 18.2578 6.24297 18.488C6.35858 18.7182 6.63315 18.9773 7.06669 19.265C7.70255 19.6967 8.29505 19.9989 8.8442 20.1716L10.4049 20.7327C12.2836 21.3658 13.6709 21.9414 14.5669 22.4594C15.4629 22.9774 16.1421 23.5242 16.6046 24.0998C17.5005 25.1934 17.9485 26.4596 17.9485 27.8985C17.9485 28.9345 17.6595 29.9706 17.0815 31.0066C16.3589 32.1577 15.2028 33.1074 13.6131 33.8556C13.0351 34.1146 12.3703 34.3017 11.6189 34.4168C10.8963 34.5607 10.2171 34.6327 9.58122 34.6327Z" fill="#FFFEFF"/>
<path d="M25.5357 23.7976C25.5357 25.4092 25.9837 26.7042 26.8797 27.6827C27.8046 28.6612 29.1774 29.1504 30.9983 29.1504C32.6168 29.1504 33.9464 28.618 34.9869 27.5532C36.0274 26.4884 36.5331 25.179 36.5042 23.6249V11.4085H41.6634V34.2441H36.5042V30.7908C35.7239 31.9131 34.7845 32.7765 33.6862 33.3808C32.5879 33.9564 31.4318 34.2441 30.2179 34.2441C28.4549 34.2441 26.8219 33.8844 25.3189 33.165C23.8449 32.4167 22.6454 31.2656 21.7206 29.7116C20.8246 28.1575 20.3766 26.2294 20.3766 23.9271V11.4949H25.5357V23.7976Z" fill="#FFFEFF"/>
<path d="M49.2326 15.5095C49.9262 14.1857 50.9667 13.164 52.3541 12.4446C53.7703 11.6963 55.0565 11.3222 56.2126 11.3222V16.2433C54.9119 16.2433 53.7269 16.5743 52.6575 17.2362C51.5881 17.8981 50.75 18.7326 50.143 19.7399C49.5361 20.7471 49.2326 21.7544 49.2326 22.7616V34.2441H44.0735V11.4085H49.2326V15.5095Z" fill="#FFFEFF"/>
<path d="M62.8839 34.46V16.5455H59.0687V11.4517H62.8839V8.08465C62.8839 6.73207 63.2163 5.46583 63.881 4.28592C64.5458 3.07723 65.4273 2.09876 66.5256 1.35053C67.6528 0.573511 68.8812 0.127447 70.2107 0.0123333C71.1645 -0.0452226 72.1905 0.0986689 73.2888 0.444008C74.416 0.76057 75.312 1.14908 75.9768 1.60953L72.942 6.01261C72.6819 5.83994 72.3495 5.69605 71.9449 5.58094C71.5402 5.43705 71.1356 5.3651 70.7309 5.3651C69.9217 5.3651 69.3003 5.60972 68.8667 6.09895C68.4621 6.5594 68.2598 7.2213 68.2598 8.08465V11.4517H75.0663V16.5455H68.2598V34.46H62.8839Z" fill="#FFFEFF"/>
<path d="M83.3869 11.3222V34.3737H78.3145V11.3222H83.3869ZM78.011 3.12039C78.011 2.3146 78.2567 1.6527 78.748 1.13469C79.2683 0.587901 79.9619 0.314507 80.829 0.314507C81.725 0.314507 82.4187 0.587901 82.91 1.13469C83.4303 1.6527 83.6904 2.3146 83.6904 3.12039C83.6904 3.95496 83.4303 4.64564 82.91 5.19243C82.4187 5.71044 81.725 5.96945 80.829 5.96945C79.933 5.96945 79.2394 5.71044 78.748 5.19243C78.2567 4.64564 78.011 3.95496 78.011 3.12039Z" fill="#FFFEFF"/>
<path d="M102.765 21.9414C102.765 20.3011 102.303 18.9916 101.378 18.0132C100.482 17.0347 99.1236 16.5455 97.3027 16.5455C96.2911 16.5455 95.3518 16.8045 94.4847 17.3225C93.6465 17.8117 92.9818 18.488 92.4904 19.3514C91.9991 20.1859 91.7679 21.1068 91.7968 22.1141V34.2441H86.6377V11.4949H91.7968V14.9483C92.5482 13.8835 93.4876 13.0489 94.6148 12.4446C95.7709 11.8114 96.927 11.4949 98.0831 11.4949C100.944 11.4949 103.3 12.3582 105.15 14.0849C107 15.8116 107.924 18.3873 107.924 21.8119V34.2441H102.765V21.9414Z" fill="#FFFEFF"/>
<path d="M122.384 29.4094C123.453 29.4094 124.45 29.1216 125.375 28.546C126.3 27.9705 127.037 27.1791 127.586 26.1718C128.135 25.1646 128.41 24.0566 128.41 22.8479C128.41 21.668 128.135 20.5888 127.586 19.6104C127.037 18.6319 126.3 17.8549 125.375 17.2793C124.45 16.7038 123.453 16.416 122.384 16.416C120.418 16.416 118.93 17.0203 117.918 18.229C116.907 19.4089 116.401 20.9486 116.401 22.8479C116.401 24.8049 116.907 26.3877 117.918 27.5964C118.93 28.805 120.418 29.4094 122.384 29.4094ZM111.112 22.8911C111.112 20.7039 111.531 18.747 112.369 17.0203C113.236 15.2936 114.493 13.941 116.141 12.9626C117.788 11.9553 119.739 11.4517 121.993 11.4517C123.178 11.4517 124.407 11.7251 125.679 12.2719C126.95 12.7899 127.991 13.682 128.8 14.9483V11.3222H134.003V32.9491C134.003 35.2514 133.453 37.2371 132.355 38.9062C131.257 40.5754 129.783 41.8416 127.933 42.705C126.083 43.5683 124.017 44 121.733 44C119.71 44 117.788 43.5252 115.967 42.5755C114.175 41.6546 112.745 40.4027 111.675 38.8199L116.054 35.9277C116.748 36.9637 117.629 37.7263 118.699 38.2156C119.768 38.7048 120.78 38.9494 121.733 38.9494C122.832 38.9494 123.916 38.7623 124.985 38.3882C126.054 38.0141 126.95 37.4242 127.673 36.6184C128.424 35.8413 128.8 34.8341 128.8 33.5966V30.7476C127.875 32.0426 126.791 32.9779 125.549 33.5535C124.306 34.129 123.121 34.4168 121.993 34.4168C119.739 34.4168 117.788 33.9276 116.141 32.9491C114.493 31.9419 113.236 30.5749 112.369 28.8482C111.531 27.0927 111.112 25.107 111.112 22.8911Z" fill="#FFFEFF"/>
<path d="M141.095 29.2367C141.991 29.2367 142.699 29.5101 143.22 30.0569C143.74 30.6037 144 31.2944 144 32.1289C144 32.9923 143.74 33.6974 143.22 34.2441C142.699 34.7909 141.991 35.0643 141.095 35.0643C140.17 35.0643 139.448 34.7909 138.928 34.2441C138.407 33.6974 138.147 32.9923 138.147 32.1289C138.147 31.2944 138.407 30.6037 138.928 30.0569C139.448 29.5101 140.17 29.2367 141.095 29.2367Z" fill="#FFFEFF"/>
</svg>
