<svg width="67" height="20" viewBox="0 0 67 20" fill="none" xmlns="http://www.w3.org/2000/svg">
<g clip-path="url(#clip0_728_3)">
<path d="M4.41559 15.7421C3.34999 15.7421 2.35098 15.4282 1.41858 14.8003C0.912422 14.434 0.439561 13.8388 0 13.0147L1.97802 11.9552C2.15118 12.3345 2.3976 12.6354 2.71728 12.8577C3.09025 13.1063 3.40993 13.2763 3.67633 13.3679C3.94273 13.4464 4.26241 13.4856 4.63537 13.4856C4.88845 13.4726 5.13487 13.4137 5.37463 13.309C5.60107 13.2306 5.76757 13.1194 5.87413 12.9755C5.95405 12.8577 5.99401 12.7466 5.99401 12.6419C5.99401 12.5111 5.92741 12.3934 5.79421 12.2887C5.67433 12.1972 5.52115 12.1187 5.33467 12.0533C5.14819 11.9748 4.88179 11.8767 4.53547 11.7589L3.93607 11.5431L3.19681 11.2684C2.91709 11.1637 2.6973 11.0722 2.53746 10.9937C2.37762 10.9021 2.1978 10.7909 1.998 10.6601C1.61172 10.4247 1.31868 10.1565 1.11888 9.85564C0.932402 9.62018 0.779221 9.34548 0.659341 9.03154C0.552781 8.71759 0.499501 8.3971 0.499501 8.07008C0.499501 7.58608 0.612721 7.12824 0.839162 6.69657C1.14552 6.121 1.60506 5.71549 2.21778 5.48003C2.83051 5.23149 3.43657 5.10722 4.03597 5.10722C4.54213 5.10722 5.06827 5.17916 5.61439 5.32306C6.17383 5.46695 6.68665 5.70895 7.15285 6.04905C7.49917 6.32376 7.75891 6.57884 7.93207 6.8143L6.05395 8.16819C6.00067 8.0897 5.92075 8.01121 5.81419 7.93273C5.30803 7.57954 4.67533 7.38986 3.91609 7.3637C3.40993 7.38986 3.06361 7.52721 2.87713 7.77575C2.81053 7.86732 2.77723 7.97197 2.77723 8.0897C2.77723 8.19435 2.81053 8.299 2.87713 8.40364C2.93041 8.50829 3.05695 8.62602 3.25675 8.75683C3.54979 8.95305 3.82285 9.0904 4.07593 9.16889L4.79521 9.42397C5.66101 9.71175 6.30037 9.97337 6.71329 10.2088C7.12621 10.4443 7.43923 10.6928 7.65235 10.9545C8.06527 11.4515 8.27174 12.0271 8.27174 12.6811C8.27174 13.1521 8.13853 13.623 7.87213 14.0939C7.53913 14.6171 7.00633 15.0488 6.27373 15.3889C6.00733 15.5067 5.70097 15.5917 5.35465 15.644C5.02165 15.7094 4.70863 15.7421 4.41559 15.7421Z" fill="#FFFEFF"/>
<path d="M11.7683 10.8171C11.7683 11.5496 11.9748 12.1383 12.3877 12.583C12.814 13.0278 13.4467 13.2502 14.2858 13.2502C15.0318 13.2502 15.6445 13.0082 16.124 12.5242C16.6035 12.0402 16.8366 11.445 16.8233 10.7386V5.1857H19.2009V15.5655H16.8233V13.9958C16.4637 14.506 16.0308 14.8984 15.5246 15.1731C15.0184 15.4347 14.4856 15.5655 13.9262 15.5655C13.1137 15.5655 12.3611 15.402 11.6684 15.075C10.9891 14.7349 10.4363 14.2116 10.0101 13.5053C9.59718 12.7989 9.39072 11.9224 9.39072 10.876V5.22495H11.7683V10.8171Z" fill="#FFFEFF"/>
<path d="M22.6893 7.04976C23.0089 6.44803 23.4885 5.98365 24.1278 5.65662C24.7805 5.31652 25.3732 5.14646 25.906 5.14646V7.38332C25.3066 7.38332 24.7605 7.53375 24.2677 7.83462C23.7748 8.13548 23.3886 8.51483 23.1088 8.97267C22.8291 9.43051 22.6893 9.88834 22.6893 10.3462V15.5655H20.3116V5.1857H22.6893V7.04976Z" fill="#FFFEFF"/>
<path d="M28.9806 15.6636V7.52067H27.2223V5.20533H28.9806V3.67484C28.9806 3.06003 29.1338 2.48447 29.4401 1.94814C29.7465 1.39874 30.1527 0.953983 30.6589 0.613875C31.1784 0.260687 31.7445 0.0579304 32.3572 0.00560605C32.7968 -0.0205557 33.2696 0.0448495 33.7758 0.201822C34.2953 0.345714 34.7082 0.522308 35.0145 0.731605L33.6159 2.73301C33.4961 2.65452 33.3429 2.58911 33.1564 2.53679C32.9699 2.47139 32.7834 2.43868 32.597 2.43868C32.224 2.43868 31.9376 2.54987 31.7378 2.77225C31.5513 2.98155 31.4581 3.28241 31.4581 3.67484V5.20533H34.595V7.52067H31.4581V15.6636H28.9806Z" fill="#FFFEFF"/>
<path d="M38.4296 5.14646V15.6244H36.0919V5.14646H38.4296ZM35.952 1.41836C35.952 1.05209 36.0653 0.751227 36.2917 0.515768C36.5315 0.267228 36.8511 0.142958 37.2507 0.142958C37.6637 0.142958 37.9833 0.267228 38.2098 0.515768C38.4495 0.751227 38.5694 1.05209 38.5694 1.41836C38.5694 1.79771 38.4495 2.11166 38.2098 2.3602C37.9833 2.59566 37.6637 2.71338 37.2507 2.71338C36.8378 2.71338 36.5181 2.59566 36.2917 2.3602C36.0653 2.11166 35.952 1.79771 35.952 1.41836Z" fill="#FFFEFF"/>
<path d="M47.3603 9.97337C47.3603 9.22775 47.1472 8.63256 46.7209 8.18781C46.308 7.74305 45.682 7.52067 44.8428 7.52067C44.3766 7.52067 43.9437 7.6384 43.5441 7.87386C43.1578 8.09624 42.8515 8.40364 42.625 8.79608C42.3986 9.17543 42.292 9.59402 42.3053 10.0519V15.5655H39.9277V5.22495H42.3053V6.79467C42.6517 6.31068 43.0846 5.93132 43.604 5.65662C44.1368 5.36884 44.6696 5.22495 45.2024 5.22495C46.5211 5.22495 47.6067 5.61738 48.4592 6.40224C49.3117 7.18711 49.7379 8.35786 49.7379 9.91451V15.5655H47.3603V9.97337Z" fill="#FFFEFF"/>
<path d="M56.4016 13.3679C56.8944 13.3679 57.3539 13.2371 57.7802 12.9755C58.2064 12.7139 58.5461 12.3541 58.7992 11.8963C59.0522 11.4384 59.1788 10.9348 59.1788 10.3854C59.1788 9.8491 59.0522 9.35856 58.7992 8.91381C58.5461 8.46905 58.2064 8.11586 57.7802 7.85424C57.3539 7.59262 56.8944 7.46181 56.4016 7.46181C55.4958 7.46181 54.8098 7.73651 54.3436 8.28591C53.8774 8.82224 53.6443 9.52207 53.6443 10.3854C53.6443 11.2749 53.8774 11.9944 54.3436 12.5438C54.8098 13.0932 55.4958 13.3679 56.4016 13.3679ZM51.2068 10.405C51.2068 9.41089 51.3999 8.52137 51.7862 7.73651C52.1858 6.95165 52.7652 6.33684 53.5244 5.89208C54.2837 5.43425 55.1828 5.20533 56.2217 5.20533C56.7679 5.20533 57.334 5.3296 57.92 5.57814C58.5061 5.8136 58.9856 6.21911 59.3586 6.79467V5.14646H61.7562V14.9769C61.7562 16.0234 61.5031 16.926 60.997 17.6847C60.4908 18.4434 59.8115 19.0189 58.959 19.4114C58.1065 19.8038 57.1541 20 56.1019 20C55.1695 20 54.2837 19.7842 53.4445 19.3525C52.6187 18.9339 51.9593 18.3649 51.4665 17.6454L53.4845 16.3308C53.8042 16.8017 54.2104 17.1483 54.7033 17.3707C55.1961 17.5931 55.6623 17.7043 56.1019 17.7043C56.608 17.7043 57.1075 17.6192 57.6004 17.4492C58.0932 17.2791 58.5061 17.011 58.8391 16.6447C59.1854 16.2915 59.3586 15.8337 59.3586 15.2712V13.9762C58.9324 14.5648 58.4329 14.99 57.8601 15.2516C57.2873 15.5132 56.7412 15.644 56.2217 15.644C55.1828 15.644 54.2837 15.4216 53.5244 14.9769C52.7652 14.519 52.1858 13.8977 51.7862 13.1128C51.3999 12.3149 51.2068 11.4123 51.2068 10.405Z" fill="#FFFEFF"/>
<path d="M65.025 13.2894C65.4379 13.2894 65.7642 13.4137 66.004 13.6622C66.2438 13.9108 66.3636 14.2247 66.3636 14.6041C66.3636 14.9965 66.2438 15.317 66.004 15.5655C65.7642 15.8141 65.4379 15.9383 65.025 15.9383C64.5987 15.9383 64.2657 15.8141 64.026 15.5655C63.7862 15.317 63.6663 14.9965 63.6663 14.6041C63.6663 14.2247 63.7862 13.9108 64.026 13.6622C64.2657 13.4137 64.5987 13.2894 65.025 13.2894Z" fill="#FFFEFF"/>
</g>
<defs>
<clipPath id="clip0_728_3">
<rect width="67" height="20" fill="white"/>
</clipPath>
</defs>
</svg>
