<svg width="16" height="16" viewBox="0 0 16 16" fill="none" xmlns="http://www.w3.org/2000/svg">
<path d="M1.65897 14C1.53675 14 1.42564 13.9694 1.32564 13.9083C1.22564 13.8472 1.14786 13.7667 1.09231 13.6667C1.03675 13.5667 1.0062 13.4583 1.00064 13.3417C0.995085 13.225 1.02564 13.1111 1.09231 13L7.25897 2.33333C7.32564 2.22222 7.41175 2.13889 7.51731 2.08333C7.62286 2.02778 7.7312 2 7.84231 2C7.95342 2 8.06175 2.02778 8.16731 2.08333C8.27286 2.13889 8.35897 2.22222 8.42564 2.33333L14.5923 13C14.659 13.1111 14.6895 13.225 14.684 13.3417C14.6784 13.4583 14.6479 13.5667 14.5923 13.6667C14.5368 13.7667 14.459 13.8472 14.359 13.9083C14.259 13.9694 14.1479 14 14.0256 14H1.65897ZM7.84231 12C8.0312 12 8.18953 11.9361 8.31731 11.8083C8.44509 11.6806 8.50897 11.5222 8.50897 11.3333C8.50897 11.1444 8.44509 10.9861 8.31731 10.8583C8.18953 10.7306 8.0312 10.6667 7.84231 10.6667C7.65342 10.6667 7.49509 10.7306 7.36731 10.8583C7.23953 10.9861 7.17564 11.1444 7.17564 11.3333C7.17564 11.5222 7.23953 11.6806 7.36731 11.8083C7.49509 11.9361 7.65342 12 7.84231 12ZM7.84231 10C8.0312 10 8.18953 9.93611 8.31731 9.80833C8.44509 9.68056 8.50897 9.52222 8.50897 9.33333V7.33333C8.50897 7.14444 8.44509 6.98611 8.31731 6.85833C8.18953 6.73056 8.0312 6.66667 7.84231 6.66667C7.65342 6.66667 7.49509 6.73056 7.36731 6.85833C7.23953 6.98611 7.17564 7.14444 7.17564 7.33333V9.33333C7.17564 9.52222 7.23953 9.68056 7.36731 9.80833C7.49509 9.93611 7.65342 10 7.84231 10Z" fill="#7F8ABD"/>
</svg>
