<svg width="20" height="20" viewBox="0 0 20 20" fill="none" xmlns="http://www.w3.org/2000/svg">
<mask id="mask0_731_26" style="mask-type:alpha" maskUnits="userSpaceOnUse" x="0" y="0" width="20" height="20">
<rect width="20" height="20" fill="#D9D9D9"/>
</mask>
<g mask="url(#mask0_731_26)">
<path d="M8.38615 16.4359C8.0667 15.9455 7.78252 15.4124 7.53359 14.8366C7.28464 14.2607 7.08431 13.6688 6.93261 13.0609H4.10565C4.55118 13.9316 5.13612 14.6573 5.86048 15.238C6.58486 15.8187 7.42675 16.218 8.38615 16.4359ZM3.58163 11.8109H6.6794C6.62705 11.5011 6.58913 11.1974 6.56563 10.8999C6.54213 10.6023 6.53038 10.3024 6.53038 10C6.53038 9.69767 6.54213 9.39772 6.56563 9.10017C6.58913 8.80262 6.62705 8.49894 6.6794 8.1891H3.58163C3.5015 8.47223 3.44007 8.76657 3.39734 9.07212C3.3546 9.37768 3.33323 9.68698 3.33323 10C3.33323 10.3131 3.3546 10.6224 3.39734 10.9279C3.44007 11.2335 3.5015 11.5278 3.58163 11.8109ZM4.10565 6.93914H6.93261C7.07363 6.32589 7.27129 5.72733 7.52556 5.14346C7.77984 4.55958 8.0667 4.03313 8.38615 3.5641C7.45345 3.77137 6.6169 4.16934 5.8765 4.75802C5.13611 5.3467 4.54583 6.07374 4.10565 6.93914ZM8.21623 6.93914H11.7836C11.6009 6.25859 11.3642 5.63145 11.0736 5.05773C10.783 4.48401 10.4251 3.91509 9.9999 3.35098C9.57468 3.89371 9.21944 4.45194 8.93419 5.02567C8.64893 5.59939 8.40961 6.23721 8.21623 6.93914ZM13.0672 6.93914H15.8942C15.454 6.07374 14.8637 5.34537 14.1233 4.75402C13.3829 4.16267 12.5463 3.76603 11.6136 3.5641C11.9064 4.02778 12.1799 4.55156 12.4342 5.13544C12.6884 5.71931 12.8995 6.32055 13.0672 6.93914ZM9.9999 17.9167C8.91443 17.9167 7.89013 17.7086 6.927 17.2925C5.96386 16.8763 5.12385 16.3098 4.40696 15.593C3.69009 14.8761 3.12359 14.0361 2.70746 13.0729C2.29132 12.1098 2.08325 11.0855 2.08325 10C2.08325 8.90601 2.29132 7.87957 2.70746 6.92071C3.12359 5.96185 3.69009 5.12397 4.40696 4.40708C5.12385 3.69021 5.96386 3.12371 6.927 2.70758C7.89013 2.29144 8.91443 2.08337 9.9999 2.08337C11.0939 2.08337 12.1204 2.29144 13.0792 2.70758C14.0381 3.12371 14.8759 3.69021 15.5928 4.40708C16.3097 5.12397 16.8762 5.96185 17.2923 6.92071C17.7085 7.87957 17.9165 8.90601 17.9165 10C17.9165 10.1443 17.9131 10.2912 17.9061 10.4407C17.8992 10.5903 17.8861 10.7372 17.8669 10.8814H16.596C16.6238 10.7372 16.6425 10.5924 16.6521 10.4471C16.6618 10.3018 16.6666 10.1528 16.6666 10C16.6666 9.68698 16.6452 9.37768 16.6025 9.07212C16.5597 8.76657 16.4983 8.47223 16.4182 8.1891H13.3204C13.3727 8.49894 13.4107 8.80262 13.4342 9.10017C13.4577 9.39772 13.4694 9.69767 13.4694 10C13.4694 10.1528 13.4681 10.3005 13.4654 10.4431C13.4628 10.5858 13.4545 10.7319 13.4406 10.8814H12.1906C12.2045 10.7372 12.2128 10.5924 12.2155 10.4471C12.2181 10.3018 12.2195 10.1528 12.2195 10C12.2195 9.68698 12.2077 9.38436 12.1842 9.09217C12.1607 8.79996 12.1228 8.49894 12.0704 8.1891H7.92938C7.87703 8.49894 7.8391 8.79996 7.81559 9.09217C7.79209 9.38436 7.78034 9.68698 7.78034 10C7.78034 10.3131 7.79209 10.6157 7.81559 10.9079C7.8391 11.2001 7.87703 11.5011 7.92938 11.8109H10.8813V13.0609H8.21623C8.40961 13.7575 8.65293 14.3993 8.94621 14.9864C9.23947 15.5735 9.5907 16.1277 9.9999 16.6491C10.1634 16.4322 10.3172 16.2105 10.4614 15.984C10.6057 15.7575 10.7456 15.5262 10.8813 15.2901V17.867C10.7371 17.8862 10.5923 17.8993 10.447 17.9063C10.3017 17.9132 10.1527 17.9167 9.9999 17.9167ZM13.9582 14.8493V16.375C13.9582 16.5524 13.8984 16.7009 13.7787 16.8205C13.6591 16.9402 13.5106 17 13.3332 17C13.1559 17 13.0074 16.9402 12.8877 16.8205C12.7681 16.7009 12.7083 16.5524 12.7083 16.375V13.4616C12.7083 13.2468 12.7801 13.0676 12.9238 12.9239C13.0675 12.7802 13.2467 12.7084 13.4614 12.7084H16.3749C16.5522 12.7084 16.7007 12.7682 16.8204 12.8879C16.9401 13.0075 16.9999 13.156 16.9999 13.3334C16.9999 13.5107 16.9401 13.6592 16.8204 13.7789C16.7007 13.8985 16.5522 13.9583 16.3749 13.9583H14.8284L17.064 16.1859C17.1794 16.3013 17.2371 16.4455 17.2371 16.6186C17.2371 16.7917 17.1794 16.9402 17.064 17.0641C16.9401 17.1934 16.7916 17.2567 16.6185 17.254C16.4454 17.2513 16.2969 17.188 16.173 17.0641L13.9582 14.8493Z" fill="#7F8ABD"/>
</g>
</svg>
