<svg width="1112" height="32" viewBox="0 0 1112 32" fill="none" xmlns="http://www.w3.org/2000/svg">
<mask id="mask0_31_171" style="mask-type:alpha" maskUnits="userSpaceOnUse" x="0" y="4" width="24" height="24">
<rect y="4" width="24" height="24" fill="#D9D9D9"/>
</mask>
<g mask="url(#mask0_31_171)">
<path d="M12 24.7365H11.7637C11.6895 24.7365 11.6228 24.7198 11.5634 24.6865C9.52115 24.0095 7.83333 22.7163 6.5 20.8067C5.16667 18.8971 4.5 16.7733 4.5 14.4355V9.9269C4.5 9.54705 4.60922 9.20518 4.82765 8.9013C5.04608 8.59742 5.32853 8.37711 5.675 8.24037L11.3673 6.11538C11.5814 6.03846 11.7923 6 12 6C12.2077 6 12.4186 6.03846 12.6327 6.11538L18.325 8.24037C18.6714 8.37711 18.9539 8.59742 19.1723 8.9013C19.3907 9.20518 19.5 9.54705 19.5 9.9269V14.4355C19.5 16.7733 18.8333 18.8971 17.5 20.8067C16.1666 22.7163 14.4793 24.0097 12.438 24.6869C12.3601 24.7199 12.2141 24.7365 12 24.7365ZM12 23.2307C13.7333 22.6807 15.1666 21.5807 16.3 19.9307C17.4333 18.2807 18 16.4474 18 14.4307V9.85958C18 9.80829 17.9871 9.76342 17.9615 9.72495C17.9359 9.68648 17.9006 9.66084 17.8557 9.64802L12.1442 7.52305C12.0929 7.50382 12.0449 7.4942 12 7.4942C11.9551 7.4942 11.907 7.50382 11.8557 7.52305L6.14423 9.64802C6.09934 9.66084 6.06408 9.68648 6.03845 9.72495C6.0128 9.76342 5.99997 9.80829 5.99997 9.85958V14.4307C5.99997 16.4474 6.56664 18.2807 7.69997 19.9307C8.83331 21.5807 10.2666 22.6807 12 23.2307Z" fill="#394A9C"/>
</g>
<circle cx="76" cy="16" r="1" fill="#394A9C"/>
<mask id="mask1_31_171" style="mask-type:alpha" maskUnits="userSpaceOnUse" x="128" y="0" width="32" height="32">
<rect x="128" width="32" height="32" fill="#D9D9D9"/>
</mask>
<g mask="url(#mask1_31_171)">
<path d="M146.59 11.8154C146.59 11.6667 146.643 11.5145 146.749 11.359C146.855 11.2034 146.975 11.0966 147.11 11.0385C147.772 10.7735 148.453 10.5726 149.153 10.4359C149.853 10.2991 150.579 10.2308 151.333 10.2308C151.769 10.2308 152.191 10.2564 152.599 10.3077C153.006 10.359 153.417 10.429 153.831 10.5179C153.988 10.5538 154.124 10.6393 154.238 10.7743C154.353 10.9094 154.41 11.0666 154.41 11.2461C154.41 11.547 154.316 11.7671 154.127 11.9064C153.938 12.0457 153.693 12.0794 153.392 12.0076C153.073 11.941 152.741 11.8931 152.396 11.8641C152.052 11.835 151.697 11.8205 151.333 11.8205C150.687 11.8205 150.054 11.8824 149.435 12.0064C148.815 12.1303 148.224 12.2982 147.661 12.5102C147.347 12.6316 147.09 12.6247 146.89 12.4897C146.69 12.3547 146.59 12.1299 146.59 11.8154ZM146.59 19.0974C146.59 18.9487 146.643 18.7944 146.749 18.6346C146.855 18.4748 146.975 18.3658 147.11 18.3077C147.755 18.0427 148.435 17.844 149.153 17.7115C149.87 17.579 150.597 17.5128 151.333 17.5128C151.769 17.5128 152.191 17.5384 152.599 17.5897C153.006 17.641 153.417 17.7111 153.831 17.8C153.988 17.8359 154.124 17.9214 154.238 18.0564C154.353 18.1914 154.41 18.3487 154.41 18.5282C154.41 18.829 154.316 19.0491 154.127 19.1884C153.938 19.3277 153.693 19.3615 153.392 19.2897C153.073 19.223 152.741 19.1752 152.396 19.1461C152.052 19.117 151.697 19.1025 151.333 19.1025C150.696 19.1025 150.069 19.1632 149.454 19.2846C148.838 19.4059 148.25 19.5769 147.687 19.7974C147.373 19.9273 147.111 19.9239 146.903 19.7871C146.694 19.6504 146.59 19.4205 146.59 19.0974ZM146.59 15.4564C146.59 15.3077 146.643 15.1534 146.749 14.9936C146.855 14.8337 146.975 14.7248 147.11 14.6667C147.772 14.4017 148.453 14.203 149.153 14.0705C149.853 13.938 150.579 13.8718 151.333 13.8718C151.769 13.8718 152.191 13.8974 152.599 13.9487C153.006 14 153.417 14.0701 153.831 14.159C153.988 14.1949 154.124 14.2803 154.238 14.4154C154.353 14.5504 154.41 14.7077 154.41 14.8871C154.41 15.188 154.316 15.4081 154.127 15.5474C153.938 15.6867 153.693 15.7205 153.392 15.6487C153.073 15.582 152.741 15.5341 152.396 15.5051C152.052 15.476 151.697 15.4615 151.333 15.4615C150.696 15.4615 150.069 15.5256 149.454 15.6538C148.838 15.782 148.25 15.9564 147.687 16.1769C147.373 16.3068 147.111 16.3 146.903 16.1564C146.694 16.0128 146.59 15.7795 146.59 15.4564ZM136.667 21.3589C137.771 21.3589 138.845 21.4842 139.89 21.7346C140.934 21.985 141.971 22.3778 143 22.9128V9.8051C142.063 9.19485 141.05 8.73717 139.959 8.43203C138.868 8.1269 137.771 7.97433 136.667 7.97433C135.867 7.97433 135.119 8.03714 134.424 8.16277C133.729 8.28841 133.015 8.49397 132.282 8.77943C132.179 8.81363 132.107 8.86279 132.064 8.9269C132.021 8.99101 132 9.06152 132 9.13843V21.7487C132 21.8683 132.043 21.9559 132.128 22.0115C132.214 22.0671 132.308 22.0735 132.41 22.0307C133.043 21.8154 133.71 21.6495 134.413 21.5333C135.115 21.4171 135.867 21.3589 136.667 21.3589ZM145 22.9128C146.029 22.3778 147.066 21.985 148.11 21.7346C149.155 21.4842 150.229 21.3589 151.333 21.3589C152.133 21.3589 152.885 21.4171 153.587 21.5333C154.29 21.6495 154.957 21.8154 155.59 22.0307C155.692 22.0735 155.786 22.0671 155.872 22.0115C155.957 21.9559 156 21.8683 156 21.7487V9.13843C156 9.06152 155.979 8.99314 155.936 8.9333C155.893 8.87345 155.821 8.82217 155.718 8.77943C154.985 8.49397 154.27 8.28841 153.576 8.16277C152.881 8.03714 152.133 7.97433 151.333 7.97433C150.229 7.97433 149.132 8.1269 148.041 8.43203C146.95 8.73717 145.937 9.19485 145 9.8051V22.9128ZM144 25.2871C143.74 25.2871 143.497 25.2546 143.271 25.1897C143.044 25.1247 142.83 25.0384 142.628 24.9307C141.71 24.411 140.75 24.0191 139.747 23.755C138.745 23.4909 137.718 23.3589 136.667 23.3589C135.853 23.3589 135.054 23.4491 134.269 23.6294C133.485 23.8097 132.728 24.0751 132 24.4255C131.525 24.6443 131.073 24.6097 130.644 24.3217C130.215 24.0337 130 23.6255 130 23.0973V8.6205C130 8.33332 130.074 8.06366 130.222 7.81153C130.37 7.5594 130.583 7.37778 130.862 7.26667C131.764 6.82735 132.705 6.50214 133.683 6.29103C134.662 6.07992 135.656 5.97437 136.667 5.97437C137.964 5.97437 139.232 6.15172 140.469 6.50643C141.707 6.86112 142.884 7.38462 144 8.07693C145.116 7.38462 146.293 6.86112 147.531 6.50643C148.768 6.15172 150.036 5.97437 151.333 5.97437C152.344 5.97437 153.338 6.07992 154.317 6.29103C155.295 6.50214 156.236 6.82735 157.138 7.26667C157.417 7.37778 157.63 7.5594 157.778 7.81153C157.926 8.06366 158 8.33332 158 8.6205V23.0973C158 23.6255 157.777 24.0294 157.331 24.3089C156.885 24.5884 156.415 24.6187 155.923 24.3999C155.203 24.058 154.458 23.7991 153.686 23.623C152.914 23.4469 152.13 23.3589 151.333 23.3589C150.282 23.3589 149.255 23.4909 148.253 23.755C147.25 24.0191 146.29 24.411 145.372 24.9307C145.17 25.0384 144.956 25.1247 144.729 25.1897C144.503 25.2546 144.26 25.2871 144 25.2871Z" fill="#394A9C"/>
</g>
<circle cx="212" cy="16" r="1" fill="#394A9C"/>
<mask id="mask2_31_171" style="mask-type:alpha" maskUnits="userSpaceOnUse" x="264" y="0" width="32" height="32">
<rect x="264" width="32" height="32" fill="#D9D9D9"/>
</mask>
<g mask="url(#mask2_31_171)">
<path d="M270.041 24.6665C269.136 24.6665 268.435 24.3469 267.938 23.7076C267.441 23.0682 267.253 22.3144 267.374 21.4461L268.8 11.3691C268.974 10.1993 269.492 9.23423 270.352 8.47385C271.213 7.71345 272.229 7.33325 273.4 7.33325H286.6C287.771 7.33325 288.787 7.71345 289.648 8.47385C290.508 9.23423 291.026 10.1993 291.2 11.3691L292.626 21.4461C292.747 22.3144 292.559 23.0682 292.062 23.7076C291.565 24.3469 290.864 24.6665 289.959 24.6665C289.578 24.6665 289.228 24.6024 288.909 24.4742C288.59 24.346 288.294 24.1451 288.021 23.8717L284.815 20.6665H275.185L271.979 23.8717C271.706 24.1451 271.41 24.346 271.091 24.4742C270.772 24.6024 270.422 24.6665 270.041 24.6665ZM270.574 22.4666L274.374 18.6666H285.626L289.426 22.4666C289.47 22.511 289.639 22.5777 289.933 22.6666C290.178 22.6666 290.372 22.5943 290.517 22.4499C290.661 22.3054 290.711 22.111 290.667 21.8666L289.196 11.5999C289.107 10.9554 288.816 10.4166 288.325 9.98322C287.833 9.54989 287.258 9.33322 286.6 9.33322H273.4C272.742 9.33322 272.167 9.54989 271.675 9.98322C271.184 10.4166 270.893 10.9554 270.804 11.5999L269.333 21.8666C269.289 22.111 269.339 22.3054 269.483 22.4499C269.628 22.5943 269.822 22.6666 270.067 22.6666C270.128 22.6666 270.297 22.5999 270.574 22.4666ZM286.667 17.205C287.002 17.205 287.286 17.0879 287.52 16.8537C287.755 16.6195 287.872 16.3349 287.872 15.9999C287.872 15.6648 287.755 15.3802 287.52 15.1461C287.286 14.9119 287.002 14.7948 286.667 14.7948C286.332 14.7948 286.047 14.9119 285.813 15.1461C285.579 15.3802 285.462 15.6648 285.462 15.9999C285.462 16.3349 285.579 16.6195 285.813 16.8537C286.047 17.0879 286.332 17.205 286.667 17.205ZM284 13.205C284.335 13.205 284.62 13.0879 284.854 12.8537C285.088 12.6195 285.205 12.3349 285.205 11.9999C285.205 11.6648 285.088 11.3802 284.854 11.1461C284.62 10.9119 284.335 10.7948 284 10.7948C283.665 10.7948 283.38 10.9119 283.146 11.1461C282.912 11.3802 282.795 11.6648 282.795 11.9999C282.795 12.3349 282.912 12.6195 283.146 12.8537C283.38 13.0879 283.665 13.205 284 13.205ZM275.333 17.1281C275.562 17.1281 275.752 17.053 275.903 16.9029C276.053 16.7527 276.128 16.5628 276.128 16.3332V14.7948H277.667C277.896 14.7948 278.086 14.7197 278.236 14.5697C278.386 14.4197 278.462 14.2299 278.462 14.0005C278.462 13.771 278.386 13.5811 278.236 13.4307C278.086 13.2802 277.896 13.205 277.667 13.205H276.128V11.6666C276.128 11.4369 276.053 11.2471 275.903 11.0969C275.753 10.9468 275.563 10.8717 275.334 10.8717C275.104 10.8717 274.915 10.9468 274.764 11.0969C274.614 11.2471 274.538 11.4369 274.538 11.6666V13.205H273C272.77 13.205 272.58 13.28 272.43 13.4301C272.28 13.5801 272.205 13.7698 272.205 13.9993C272.205 14.2287 272.28 14.4187 272.43 14.5691C272.58 14.7195 272.77 14.7948 273 14.7948H274.538V16.3332C274.538 16.5628 274.613 16.7527 274.764 16.9029C274.914 17.053 275.103 17.1281 275.333 17.1281Z" fill="#394A9C"/>
</g>
<circle cx="348" cy="16" r="1" fill="#394A9C"/>
<mask id="mask3_31_171" style="mask-type:alpha" maskUnits="userSpaceOnUse" x="400" y="0" width="32" height="32">
<rect x="400" width="32" height="32" fill="#D9D9D9"/>
</mask>
<g mask="url(#mask3_31_171)">
<path d="M408.256 27.0768C407.494 27.0768 406.739 26.9093 405.993 26.5743C405.247 26.2392 404.626 25.7914 404.128 25.2307C404.638 25.0854 405.12 24.7764 405.574 24.3038C406.029 23.8311 406.256 23.1999 406.256 22.4102C406.256 21.4786 406.579 20.6901 407.224 20.0448C407.87 19.3996 408.658 19.0769 409.59 19.0769C410.521 19.0769 411.31 19.3996 411.955 20.0448C412.6 20.6901 412.923 21.4786 412.923 22.4102C412.923 23.6935 412.466 24.7921 411.552 25.706C410.638 26.6199 409.54 27.0768 408.256 27.0768ZM408.256 25.0769C408.99 25.0769 409.618 24.8157 410.14 24.2935C410.662 23.7713 410.923 23.1435 410.923 22.4102C410.923 22.0324 410.795 21.7157 410.54 21.4602C410.284 21.2046 409.968 21.0769 409.59 21.0769C409.212 21.0769 408.895 21.2046 408.64 21.4602C408.384 21.7157 408.256 22.0324 408.256 22.4102C408.256 22.9213 408.195 23.388 408.073 23.8102C407.951 24.2324 407.79 24.6324 407.59 25.0102C407.701 25.0546 407.812 25.0769 407.923 25.0769H408.256ZM415.333 19.6666L412.359 16.6923L423.779 5.27182C424.024 5.02737 424.329 4.8996 424.696 4.88848C425.063 4.87737 425.379 5.00515 425.646 5.27182L426.754 6.37945C427.02 6.64612 427.154 6.95723 427.154 7.31278C427.154 7.66834 427.02 7.97945 426.754 8.24612L415.333 19.6666Z" fill="#394A9C"/>
</g>
<circle cx="484" cy="16" r="1" fill="#394A9C"/>
<mask id="mask4_31_171" style="mask-type:alpha" maskUnits="userSpaceOnUse" x="536" y="0" width="32" height="32">
<rect x="536" width="32" height="32" fill="#D9D9D9"/>
</mask>
<g mask="url(#mask4_31_171)">
<path d="M556 26.0768C555.716 26.0768 555.479 25.9811 555.287 25.7897C555.096 25.5982 555 25.3606 555 25.0769C555 24.7931 555.096 24.5555 555.287 24.3641C555.479 24.1726 555.716 24.0769 556 24.0769H558.41C558.873 24.0769 559.267 23.9149 559.591 23.591C559.915 23.2671 560.077 22.8735 560.077 22.4102V19.641C560.077 18.8478 560.311 18.1324 560.778 17.4948C561.246 16.8572 561.858 16.4154 562.615 16.1692V15.8307C561.858 15.5846 561.246 15.1427 560.778 14.5051C560.311 13.8675 560.077 13.1521 560.077 12.359V9.58973C560.077 9.12646 559.915 8.73286 559.591 8.40893C559.267 8.085 558.873 7.92303 558.41 7.92303H556C555.716 7.92303 555.479 7.82731 555.287 7.63586C555.096 7.44442 555 7.20682 555 6.92306C555 6.63931 555.096 6.40171 555.287 6.21026C555.479 6.01882 555.716 5.9231 556 5.9231H558.41C559.427 5.9231 560.293 6.27993 561.006 6.9936C561.72 7.70726 562.077 8.57264 562.077 9.58973V12.359C562.077 12.8051 562.224 13.1859 562.518 13.5013C562.812 13.8167 563.178 13.9957 563.615 14.0385C563.899 14.0556 564.137 14.1599 564.328 14.3513C564.52 14.5427 564.615 14.7761 564.615 15.0513V16.9487C564.615 17.2239 564.52 17.4572 564.328 17.6486C564.137 17.8401 563.899 17.9444 563.615 17.9615C563.178 18.0042 562.812 18.1833 562.518 18.4986C562.224 18.814 562.077 19.1948 562.077 19.641V22.4102C562.077 23.4273 561.72 24.2927 561.006 25.0063C560.293 25.72 559.427 26.0768 558.41 26.0768H556ZM545.59 26.0768C544.573 26.0768 543.707 25.72 542.994 25.0063C542.28 24.2927 541.923 23.4273 541.923 22.4102V19.641C541.923 19.1948 541.776 18.814 541.482 18.4986C541.188 18.1833 540.822 18.0042 540.385 17.9615C540.101 17.9444 539.863 17.8401 539.672 17.6486C539.48 17.4572 539.385 17.2239 539.385 16.9487V15.0513C539.385 14.7761 539.48 14.5427 539.672 14.3513C539.863 14.1599 540.101 14.0556 540.385 14.0385C540.822 13.9957 541.188 13.8167 541.482 13.5013C541.776 13.1859 541.923 12.8051 541.923 12.359V9.58973C541.923 8.57264 542.28 7.70726 542.994 6.9936C543.707 6.27993 544.573 5.9231 545.59 5.9231H548C548.284 5.9231 548.521 6.01882 548.713 6.21026C548.904 6.40171 549 6.63931 549 6.92306C549 7.20682 548.904 7.44442 548.713 7.63586C548.521 7.82731 548.284 7.92303 548 7.92303H545.59C545.126 7.92303 544.733 8.085 544.409 8.40893C544.085 8.73286 543.923 9.12646 543.923 9.58973V12.359C543.923 13.1521 543.689 13.8675 543.222 14.5051C542.754 15.1427 542.142 15.5846 541.385 15.8307V16.1692C542.142 16.4154 542.754 16.8572 543.222 17.4948C543.689 18.1324 543.923 18.8478 543.923 19.641V22.4102C543.923 22.8735 544.085 23.2671 544.409 23.591C544.733 23.9149 545.126 24.0769 545.59 24.0769H548C548.284 24.0769 548.521 24.1726 548.713 24.3641C548.904 24.5555 549 24.7931 549 25.0769C549 25.3606 548.904 25.5982 548.713 25.7897C548.521 25.9811 548.284 26.0768 548 26.0768H545.59Z" fill="#394A9C"/>
</g>
<circle cx="620" cy="16" r="1" fill="#394A9C"/>
<mask id="mask5_31_171" style="mask-type:alpha" maskUnits="userSpaceOnUse" x="672" y="0" width="32" height="32">
<rect x="672" width="32" height="32" fill="#D9D9D9"/>
</mask>
<g mask="url(#mask5_31_171)">
<path d="M677.744 27.3332C677.07 27.3332 676.5 27.0999 676.033 26.6332C675.567 26.1665 675.333 25.5964 675.333 24.9229V11.0769C675.333 10.4034 675.567 9.83327 676.033 9.3666C676.5 8.89993 677.07 8.6666 677.744 8.6666H683.333V6.41023C683.333 5.73674 683.567 5.16667 684.033 4.7C684.5 4.23333 685.07 4 685.744 4H690.256C690.93 4 691.5 4.23333 691.967 4.7C692.433 5.16667 692.667 5.73674 692.667 6.41023V8.6666H698.256C698.93 8.6666 699.5 8.89993 699.967 9.3666C700.433 9.83327 700.667 10.4034 700.667 11.0769V24.9229C700.667 25.5964 700.433 26.1665 699.967 26.6332C699.5 27.0999 698.93 27.3332 698.256 27.3332H677.744ZM677.744 25.3332H698.256C698.359 25.3332 698.453 25.2905 698.538 25.205C698.624 25.1195 698.667 25.0255 698.667 24.9229V11.0769C698.667 10.9743 698.624 10.8803 698.538 10.7948C698.453 10.7093 698.359 10.6666 698.256 10.6666H677.744C677.641 10.6666 677.547 10.7093 677.462 10.7948C677.376 10.8803 677.333 10.9743 677.333 11.0769V24.9229C677.333 25.0255 677.376 25.1195 677.462 25.205C677.547 25.2905 677.641 25.3332 677.744 25.3332ZM685.333 8.6666H690.667V6.41023C690.667 6.30766 690.624 6.21363 690.538 6.12817C690.453 6.04268 690.359 5.99993 690.256 5.99993H685.744C685.641 5.99993 685.547 6.04268 685.462 6.12817C685.376 6.21363 685.333 6.30766 685.333 6.41023V8.6666Z" fill="#394A9C"/>
</g>
<circle cx="756" cy="16" r="1" fill="#394A9C"/>
<mask id="mask6_31_171" style="mask-type:alpha" maskUnits="userSpaceOnUse" x="808" y="0" width="32" height="32">
<rect x="808" width="32" height="32" fill="#D9D9D9"/>
</mask>
<g mask="url(#mask6_31_171)">
<path d="M815.077 27.3333C814.412 27.3333 813.844 27.0979 813.373 26.6269C812.902 26.156 812.667 25.588 812.667 24.9231V16C812.667 14.4274 812.964 12.9539 813.559 11.5795C814.154 10.2052 814.962 9.0069 815.985 7.98468C817.007 6.96248 818.205 6.15395 819.58 5.55908C820.954 4.96419 822.427 4.66675 824 4.66675C825.573 4.66675 827.046 4.96419 828.421 5.55908C829.795 6.15395 830.993 6.96248 832.015 7.98468C833.038 9.0069 833.846 10.2052 834.441 11.5795C835.036 12.9539 835.333 14.4274 835.333 16V24.9231C835.333 25.588 835.098 26.156 834.627 26.6269C834.156 27.0979 833.588 27.3333 832.923 27.3333H831.026C830.361 27.3333 829.793 27.0979 829.322 26.6269C828.851 26.156 828.615 25.588 828.615 24.9231V20.3077C828.615 19.6428 828.851 19.0749 829.322 18.6039C829.793 18.133 830.361 17.8975 831.026 17.8975H833.333V16C833.333 13.4 832.428 11.1945 830.617 9.38338C828.806 7.57227 826.6 6.66671 824 6.66671C821.4 6.66671 819.194 7.57227 817.383 9.38338C815.572 11.1945 814.667 13.4 814.667 16V17.8975H816.974C817.639 17.8975 818.207 18.133 818.678 18.6039C819.149 19.0749 819.385 19.6428 819.385 20.3077V24.9231C819.385 25.588 819.149 26.156 818.678 26.6269C818.207 27.0979 817.639 27.3333 816.974 27.3333H815.077ZM815.077 25.3334H816.974C817.094 25.3334 817.192 25.2949 817.269 25.218C817.346 25.141 817.385 25.0427 817.385 24.9231V20.3077C817.385 20.1881 817.346 20.0898 817.269 20.0129C817.192 19.9359 817.094 19.8975 816.974 19.8975H814.667V24.9231C814.667 25.0427 814.705 25.141 814.782 25.218C814.859 25.2949 814.957 25.3334 815.077 25.3334ZM831.026 25.3334H832.923C833.043 25.3334 833.141 25.2949 833.218 25.218C833.295 25.141 833.333 25.0427 833.333 24.9231V19.8975H831.026C830.906 19.8975 830.808 19.9359 830.731 20.0129C830.654 20.0898 830.615 20.1881 830.615 20.3077V24.9231C830.615 25.0427 830.654 25.141 830.731 25.218C830.808 25.2949 830.906 25.3334 831.026 25.3334ZM815.077 25.3334H814.667H817.385H815.077ZM831.026 25.3334H830.615H833.333H831.026Z" fill="#394A9C"/>
</g>
<circle cx="892" cy="16" r="1" fill="#394A9C"/>
<mask id="mask7_31_171" style="mask-type:alpha" maskUnits="userSpaceOnUse" x="944" y="0" width="32" height="32">
<rect x="944" width="32" height="32" fill="#D9D9D9"/>
</mask>
<g mask="url(#mask7_31_171)">
<path d="M960 27.6667C959.716 27.6667 959.479 27.5708 959.287 27.3792C959.096 27.1875 959 26.95 959 26.6667V17.0846C957.663 17.0846 956.382 16.8316 955.156 16.3257C953.931 15.8197 952.848 15.0966 951.908 14.1564C950.968 13.2163 950.25 12.1334 949.755 10.9077C949.26 9.6821 949.013 8.40091 949.013 7.06416V6.24369C949.013 5.90587 949.127 5.62269 949.356 5.39416C949.584 5.16565 949.867 5.05139 950.205 5.05139H951.026C952.333 5.05139 953.6 5.30651 954.824 5.81676C956.049 6.32703 957.132 7.05224 958.072 7.99239C958.769 8.68984 959.341 9.4689 959.788 10.3296C960.235 11.1903 960.556 12.1044 960.749 13.0719C960.903 12.8052 961.074 12.5527 961.263 12.3142C961.452 12.0757 961.662 11.8402 961.895 11.6078C962.832 10.6691 963.915 9.94431 965.144 9.43329C966.373 8.92225 967.654 8.66672 968.987 8.66672H969.808C970.145 8.66672 970.429 8.78099 970.657 9.00952C970.886 9.23806 971 9.52122 971 9.85902V10.6795C971 12.0126 970.744 13.2935 970.233 14.5225C969.722 15.7514 968.998 16.8345 968.059 17.7718C967.119 18.7119 966.041 19.4295 964.827 19.9243C963.612 20.4192 962.337 20.6667 961 20.6667V26.6667C961 26.95 960.904 27.1875 960.712 27.3792C960.521 27.5708 960.283 27.6667 960 27.6667ZM959.013 15.0513C959.013 13.9847 958.807 12.968 958.396 12.0013C957.985 11.0347 957.402 10.1735 956.646 9.41799C955.891 8.66244 955.03 8.0791 954.063 7.66799C953.096 7.25688 952.08 7.05132 951.013 7.05132C951.013 8.11799 951.213 9.14021 951.613 10.118C952.013 11.0958 952.591 11.9624 953.346 12.718C954.102 13.4735 954.968 14.0513 955.946 14.4513C956.924 14.8513 957.946 15.0513 959.013 15.0513ZM961 18.6667C962.067 18.6667 963.083 18.4667 964.05 18.0667C965.017 17.6667 965.878 17.0889 966.633 16.3334C967.389 15.5778 967.972 14.7111 968.383 13.7334C968.794 12.7556 969 11.7334 969 10.6667C967.933 10.6667 966.911 10.8722 965.933 11.2834C964.956 11.6945 964.089 12.2778 963.333 13.0334C962.578 13.7889 962 14.65 961.6 15.6167C961.2 16.5834 961 17.6 961 18.6667Z" fill="#394A9C"/>
</g>
<circle cx="1028" cy="16" r="1" fill="#394A9C"/>
<mask id="mask8_31_171" style="mask-type:alpha" maskUnits="userSpaceOnUse" x="1080" y="0" width="32" height="32">
<rect x="1080" width="32" height="32" fill="#D9D9D9"/>
</mask>
<g mask="url(#mask8_31_171)">
<path d="M1094.66 20.3334H1098C1098.28 20.3334 1098.52 20.2375 1098.71 20.0457C1098.9 19.854 1099 19.6164 1099 19.3329C1099 19.0495 1098.9 18.812 1098.71 18.6206C1098.52 18.4291 1098.28 18.3334 1098 18.3334H1094.86L1095.12 15.9949C1095.16 15.5675 1095.34 15.2094 1095.65 14.9205C1095.96 14.6316 1096.33 14.4872 1096.75 14.4872H1100.72C1101 14.4872 1101.24 14.3913 1101.43 14.1995C1101.62 14.0078 1101.72 13.7702 1101.72 13.4867C1101.72 13.2033 1101.62 12.9658 1101.43 12.7744C1101.24 12.5829 1101 12.4872 1100.72 12.4872H1096.78C1095.83 12.4872 1095 12.8034 1094.31 13.4359C1093.62 14.0684 1093.22 14.8538 1093.12 15.7923L1091.96 26.9051C1091.95 27.0539 1091.96 27.1946 1092.01 27.3275C1092.06 27.4603 1092.13 27.5766 1092.22 27.6762C1092.32 27.7758 1092.42 27.8547 1092.55 27.9128C1092.67 27.9709 1092.81 28 1092.96 28C1093.21 28 1093.43 27.9133 1093.62 27.7397C1093.81 27.5663 1093.93 27.3556 1093.96 27.1077L1094.66 20.3334ZM1088 22.6257C1086.73 21.4701 1085.75 20.1458 1085.05 18.6526C1084.35 17.1594 1084 15.6055 1084 13.9908C1084 10.8452 1085.1 8.1715 1087.31 5.96961C1089.51 3.7677 1092.19 2.66675 1095.33 2.66675C1097.92 2.66675 1100.24 3.44068 1102.28 4.98855C1104.32 6.53641 1105.65 8.54453 1106.26 11.0129L1107.82 17.1656C1107.92 17.5458 1107.85 17.891 1107.61 18.2013C1107.36 18.5115 1107.04 18.6667 1106.64 18.6667H1104V22.9231C1104 23.5859 1103.76 24.1533 1103.29 24.6253C1102.82 25.0973 1102.25 25.3333 1101.59 25.3333H1098.67V27C1098.67 27.2833 1098.57 27.5209 1098.38 27.7125C1098.19 27.9042 1097.95 28 1097.67 28C1097.38 28 1097.15 27.9042 1096.95 27.7125C1096.76 27.5209 1096.67 27.2833 1096.67 27V24.5448C1096.67 24.197 1096.78 23.9082 1097.01 23.6782C1097.24 23.4483 1097.53 23.3334 1097.87 23.3334H1101.59C1101.71 23.3334 1101.81 23.2949 1101.88 23.218C1101.96 23.141 1102 23.0427 1102 22.9231V17.8718C1102 17.5304 1102.12 17.2442 1102.35 17.0132C1102.58 16.7822 1102.86 16.6667 1103.21 16.6667H1105.6L1104.33 11.5C1103.82 9.46927 1102.73 7.82269 1101.05 6.56031C1099.38 5.29791 1097.47 4.66671 1095.33 4.66671C1092.76 4.66671 1090.56 5.56796 1088.73 7.37045C1086.91 9.17294 1086 11.3649 1086 13.9462C1086 15.2773 1086.27 16.5419 1086.82 17.7399C1087.36 18.938 1088.13 20.0029 1089.13 20.9347L1090 21.7334V27C1090 27.2833 1089.9 27.5209 1089.71 27.7125C1089.52 27.9042 1089.28 28 1089 28C1088.72 28 1088.48 27.9042 1088.29 27.7125C1088.1 27.5209 1088 27.2833 1088 27V22.6257Z" fill="#394A9C"/>
</g>
</svg>
