<svg width="684" height="210" viewBox="0 0 684 210" fill="none" xmlns="http://www.w3.org/2000/svg">
<path d="M45.5108 110.36C34.5278 110.36 24.2312 107.102 14.6211 100.587C9.40419 96.7859 4.53049 90.6095 0 82.0576L20.3872 71.0623C22.1719 74.9989 24.7117 78.121 28.0066 80.4287C31.8507 83.0078 35.1456 84.7725 37.8913 85.7227C40.6371 86.5372 43.932 86.9444 47.7761 86.9444C50.3845 86.8087 52.9243 86.1978 55.3955 85.1119C57.7294 84.2974 59.4455 83.1436 60.5438 81.6504C61.3675 80.4287 61.7794 79.2748 61.7794 78.1889C61.7794 76.8315 61.0929 75.6097 59.7201 74.5238C58.4845 73.5736 56.9057 72.7591 54.9836 72.0804C53.0616 71.2659 50.3159 70.2478 46.7464 69.0261L40.5685 66.7863L32.949 63.9357C30.066 62.8497 27.8007 61.8995 26.1533 61.085C24.5058 60.1348 22.6524 58.981 20.5931 57.6236C16.6118 55.1802 13.5915 52.3974 11.5321 49.2753C9.61012 46.8319 8.03132 43.9812 6.79573 40.7234C5.69743 37.4655 5.14828 34.1397 5.14828 30.7461C5.14828 25.7236 6.31523 20.9725 8.64911 16.493C11.8067 10.5202 16.5431 6.31211 22.8584 3.86871C29.1736 1.28957 35.4202 0 41.5981 0C46.815 0 52.2379 0.746593 57.8667 2.23978C63.6328 3.73297 68.9183 6.24424 73.7234 9.7736C77.2929 12.6242 79.97 15.2713 81.7547 17.7147L62.3972 31.7642C61.848 30.9498 61.0243 30.1353 59.926 29.3208C54.7091 25.6557 48.1879 23.6874 40.3625 23.4159C35.1456 23.6874 31.5761 25.1127 29.6541 27.6919C28.9677 28.6421 28.6244 29.7281 28.6244 30.9498C28.6244 32.0357 28.9677 33.1217 29.6541 34.2076C30.2032 35.2936 31.5075 36.5153 33.5668 37.8727C36.5871 39.9089 39.4015 41.3342 42.01 42.1487L49.4235 44.7957C58.3472 47.7821 64.937 50.497 69.1929 52.9404C73.4488 55.3838 76.6751 57.9629 78.8717 60.6778C83.1276 65.8361 85.2555 71.8089 85.2555 78.5961C85.2555 83.4829 83.8827 88.3697 81.1369 93.2565C77.7047 98.6863 72.2132 103.166 64.6624 106.695C61.9167 107.917 58.7591 108.799 55.1896 109.342C51.7574 110.021 48.5311 110.36 45.5108 110.36Z" fill="url(#paint0_radial_31_129)"/>
<path d="M122.295 101.365C122.295 108.967 124.423 115.075 128.678 119.691C133.072 124.306 139.593 126.614 148.242 126.614C155.93 126.614 162.245 124.102 167.188 119.08C172.13 114.057 174.532 107.881 174.395 100.551V42.927H198.901V150.64H174.395V134.351C170.688 139.645 166.227 143.717 161.01 146.568C155.793 149.283 150.301 150.64 144.535 150.64C136.161 150.64 128.404 148.944 121.265 145.55C114.263 142.021 108.566 136.591 104.173 129.261C99.9167 121.93 97.7887 112.835 97.7887 101.976V43.3342H122.295V101.365Z" fill="url(#paint1_radial_31_129)"/>
<path d="M235.855 74.6765C239.15 68.4322 244.092 63.6133 250.682 60.2196C257.409 56.6903 263.518 54.9256 269.01 54.9256V78.1379C262.832 78.1379 257.203 79.699 252.123 82.8211C247.044 85.9433 243.062 89.8799 240.179 94.631C237.296 99.382 235.855 104.133 235.855 108.884V163.046H211.349V55.3328H235.855V74.6765Z" fill="url(#paint2_radial_31_129)"/>
<path d="M299.374 192.408V107.907H281.252V83.88H299.374V67.9978C299.374 61.6179 300.953 55.6451 304.11 50.0795C307.268 44.3783 311.455 39.763 316.672 36.2336C322.026 32.5685 327.861 30.4645 334.176 29.9215C338.707 29.65 343.581 30.3287 348.797 31.9576C354.152 33.4508 358.408 35.2834 361.565 37.4553L347.15 58.2242C345.914 57.4098 344.336 56.731 342.414 56.188C340.491 55.5093 338.569 55.17 336.647 55.17C332.803 55.17 329.852 56.3238 327.792 58.6315C325.87 60.8034 324.909 63.9255 324.909 67.9978V83.88H357.241V107.907H324.909V192.408H299.374Z" fill="url(#paint3_radial_31_129)"/>
<path d="M399.646 100.476V209.207H375.552V100.476H399.646ZM374.111 61.7886C374.111 57.9878 375.278 54.8656 377.612 52.4222C380.083 49.8431 383.378 48.5535 387.496 48.5535C391.752 48.5535 395.047 49.8431 397.381 52.4222C399.852 54.8656 401.088 57.9878 401.088 61.7886C401.088 65.7252 399.852 68.9831 397.381 71.5622C395.047 74.0057 391.752 75.2274 387.496 75.2274C383.24 75.2274 379.946 74.0057 377.612 71.5622C375.278 68.9831 374.111 65.7252 374.111 61.7886Z" fill="url(#paint4_radial_31_129)"/>
<path d="M490.135 138.638C490.135 130.901 487.939 124.724 483.546 120.109C479.29 115.494 472.837 113.186 464.188 113.186C459.383 113.186 454.921 114.408 450.802 116.851C446.821 119.159 443.664 122.349 441.33 126.421C438.996 130.358 437.897 134.702 438.035 139.453V196.669H413.529V89.363H438.035V105.652C441.604 100.63 446.066 96.6932 451.42 93.8426C456.912 90.8562 462.403 89.363 467.895 89.363C481.486 89.363 492.675 93.4353 501.462 101.58C510.248 109.725 514.641 121.874 514.641 138.027V196.669H490.135V138.638Z" fill="url(#paint5_radial_31_129)"/>
<path d="M580.322 104.359C585.402 104.359 590.138 103.002 594.532 100.287C598.925 97.5717 602.426 93.8388 605.034 89.0877C607.643 84.3366 608.947 79.1105 608.947 73.4092C608.947 67.8437 607.643 62.7532 605.034 58.1379C602.426 53.5226 598.925 49.8575 594.532 47.1426C590.138 44.4277 585.402 43.0703 580.322 43.0703C570.987 43.0703 563.917 45.9209 559.112 51.6222C554.306 57.1877 551.904 64.4501 551.904 73.4092C551.904 82.6398 554.306 90.1058 559.112 95.8071C563.917 101.508 570.987 104.359 580.322 104.359ZM526.78 73.6128C526.78 63.2962 528.771 54.0656 532.752 45.9209C536.871 37.7762 542.843 31.3962 550.668 26.7809C558.494 22.0299 567.761 19.6543 578.469 19.6543C584.098 19.6543 589.932 20.9439 595.973 23.5231C602.014 25.9665 606.956 30.1745 610.8 36.1473V19.0435H635.512V121.056C635.512 131.915 632.904 141.281 627.687 149.155C622.47 157.028 615.468 163.001 606.682 167.073C597.895 171.145 588.079 173.181 577.233 173.181C567.623 173.181 558.494 170.942 549.845 166.462C541.333 162.118 534.537 156.213 529.457 148.747L550.256 135.105C553.551 139.992 557.739 143.589 562.818 145.897C567.898 148.204 572.703 149.358 577.233 149.358C582.45 149.358 587.599 148.476 592.678 146.711C597.758 144.947 602.014 142.164 605.446 138.363C609.016 134.698 610.8 129.947 610.8 124.11V110.671C606.407 116.78 601.259 121.191 595.355 123.906C589.452 126.621 583.823 127.979 578.469 127.979C567.761 127.979 558.494 125.671 550.668 121.056C542.843 116.304 536.871 109.857 532.752 101.712C528.771 93.4315 526.78 84.0652 526.78 73.6128Z" fill="url(#paint6_radial_31_129)"/>
<path d="M669.236 86.2089C673.492 86.2089 676.855 87.4985 679.326 90.0777C681.797 92.6568 683.033 95.9147 683.033 99.8513C683.033 103.924 681.797 107.249 679.326 109.829C676.855 112.408 673.492 113.697 669.236 113.697C664.842 113.697 661.41 112.408 658.939 109.829C656.468 107.249 655.232 103.924 655.232 99.8513C655.232 95.9147 656.468 92.6568 658.939 90.0777C661.41 87.4985 664.842 86.2089 669.236 86.2089Z" fill="url(#paint7_radial_31_129)"/>
<defs>
<radialGradient id="paint0_radial_31_129" cx="0" cy="0" r="1" gradientUnits="userSpaceOnUse" gradientTransform="translate(342 209) rotate(-90) scale(179 584.41)">
<stop stop-color="#CACDE0"/>
<stop offset="1" stop-color="#FFFEFF"/>
</radialGradient>
<radialGradient id="paint1_radial_31_129" cx="0" cy="0" r="1" gradientUnits="userSpaceOnUse" gradientTransform="translate(342 209) rotate(-90) scale(179 584.41)">
<stop stop-color="#CACDE0"/>
<stop offset="1" stop-color="#FFFEFF"/>
</radialGradient>
<radialGradient id="paint2_radial_31_129" cx="0" cy="0" r="1" gradientUnits="userSpaceOnUse" gradientTransform="translate(342 209) rotate(-90) scale(179 584.41)">
<stop stop-color="#CACDE0"/>
<stop offset="1" stop-color="#FFFEFF"/>
</radialGradient>
<radialGradient id="paint3_radial_31_129" cx="0" cy="0" r="1" gradientUnits="userSpaceOnUse" gradientTransform="translate(342 209) rotate(-90) scale(179 584.41)">
<stop stop-color="#CACDE0"/>
<stop offset="1" stop-color="#FFFEFF"/>
</radialGradient>
<radialGradient id="paint4_radial_31_129" cx="0" cy="0" r="1" gradientUnits="userSpaceOnUse" gradientTransform="translate(342 209) rotate(-90) scale(179 584.41)">
<stop stop-color="#CACDE0"/>
<stop offset="1" stop-color="#FFFEFF"/>
</radialGradient>
<radialGradient id="paint5_radial_31_129" cx="0" cy="0" r="1" gradientUnits="userSpaceOnUse" gradientTransform="translate(342 209) rotate(-90) scale(179 584.41)">
<stop stop-color="#CACDE0"/>
<stop offset="1" stop-color="#FFFEFF"/>
</radialGradient>
<radialGradient id="paint6_radial_31_129" cx="0" cy="0" r="1" gradientUnits="userSpaceOnUse" gradientTransform="translate(342 209) rotate(-90) scale(179 584.41)">
<stop stop-color="#CACDE0"/>
<stop offset="1" stop-color="#FFFEFF"/>
</radialGradient>
<radialGradient id="paint7_radial_31_129" cx="0" cy="0" r="1" gradientUnits="userSpaceOnUse" gradientTransform="translate(342 209) rotate(-90) scale(179 584.41)">
<stop stop-color="#CACDE0"/>
<stop offset="1" stop-color="#FFFEFF"/>
</radialGradient>
</defs>
</svg>
