<svg width="1651" height="1093" viewBox="0 0 1651 1093" fill="none" xmlns="http://www.w3.org/2000/svg">
<rect width="1513" height="1088" transform="translate(69 5)" fill="#5A69B0"/>
<path d="M1585.99 683.188L1585.99 830.917C1494.07 830.917 1452.61 883.943 1330.31 884.3C1197.1 884.118 1123.46 711.827 1011.72 746.438C909.552 778.088 825.5 696.33 750.508 671.393C667.462 643.778 571.331 680.695 521.001 708.509C437.005 754.929 374.036 818.173 279.414 831.705C141.509 851.428 64.0023 796.431 64.0023 796.431L64.0023 312.826L1585.99 312.826L1585.99 683.188Z" fill="#7F8ABD"/>
<g filter="url(#filter0_d_100_66)">
<path d="M1585.99 800.347C1504.91 800.813 1469.62 708.816 1323.27 708.816C1176.92 708.816 1152.19 652.122 1047.99 652.122C929.867 652.122 936.543 568.119 741.429 566.305C498.369 564.044 384.988 741.32 294.687 759.513C229.375 772.672 205.561 733.913 154.421 733.913C103.282 733.913 64.0023 772.685 64.0023 772.685L64.0023 198.111L1585.99 198.112L1585.99 800.347Z" fill="#AEB4D4"/>
</g>
<g filter="url(#filter1_d_100_66)">
<path d="M1587 739.663C1505.92 740.1 1537.03 659.514 1392.83 659.514C1248.62 659.514 1230.06 566.379 1125.85 566.379C1007.73 566.379 1019.1 461.202 823.99 459.497C664.442 458.103 634.762 554.243 502.987 554.243C371.212 554.243 322.46 687.452 262.907 687.452C204.216 687.452 208.724 650.016 157.584 650.016C106.444 650.016 65.0081 687.452 65.0081 687.452L65.0082 110.037L1587 110.037L1587 739.663Z" fill="#CACDE0"/>
</g>
<path d="M1585.99 587.639C1504.91 588.044 1477.64 496.328 1344.12 496.328C1145.27 496.328 968.439 373.892 756.978 373.892C512.948 373.892 430.913 558.618 274.819 558.618C159.629 558.618 184.722 610.201 63.9999 610.201L64 -0.000183701L1585.99 -5.0644e-05L1585.99 587.639Z" fill="#E3E5EF"/>
<defs>
<filter id="filter0_d_100_66" x="0.00219727" y="132.111" width="1649.99" height="730.237" filterUnits="userSpaceOnUse" color-interpolation-filters="sRGB">
<feFlood flood-opacity="0" result="BackgroundImageFix"/>
<feColorMatrix in="SourceAlpha" type="matrix" values="0 0 0 0 0 0 0 0 0 0 0 0 0 0 0 0 0 0 127 0" result="hardAlpha"/>
<feOffset dy="-2"/>
<feGaussianBlur stdDeviation="32"/>
<feComposite in2="hardAlpha" operator="out"/>
<feColorMatrix type="matrix" values="0 0 0 0 0.00784314 0 0 0 0 0.0156863 0 0 0 0 0.101961 0 0 0 0.02 0"/>
<feBlend mode="normal" in2="BackgroundImageFix" result="effect1_dropShadow_100_66"/>
<feBlend mode="normal" in="SourceGraphic" in2="effect1_dropShadow_100_66" result="shape"/>
</filter>
<filter id="filter1_d_100_66" x="1.00806" y="44.0371" width="1649.99" height="757.627" filterUnits="userSpaceOnUse" color-interpolation-filters="sRGB">
<feFlood flood-opacity="0" result="BackgroundImageFix"/>
<feColorMatrix in="SourceAlpha" type="matrix" values="0 0 0 0 0 0 0 0 0 0 0 0 0 0 0 0 0 0 127 0" result="hardAlpha"/>
<feOffset dy="-2"/>
<feGaussianBlur stdDeviation="32"/>
<feComposite in2="hardAlpha" operator="out"/>
<feColorMatrix type="matrix" values="0 0 0 0 0.00784314 0 0 0 0 0.0156863 0 0 0 0 0.101961 0 0 0 0.04 0"/>
<feBlend mode="normal" in2="BackgroundImageFix" result="effect1_dropShadow_100_66"/>
<feBlend mode="normal" in="SourceGraphic" in2="effect1_dropShadow_100_66" result="shape"/>
</filter>
</defs>
</svg>
