<svg width="16" height="16" viewBox="0 0 16 16" fill="none" xmlns="http://www.w3.org/2000/svg">
<path d="M10.8081 16H5.19186C3.81554 15.9979 2.4962 15.4502 1.523 14.477C0.549795 13.5037 0.00211579 12.1844 0 10.808V5.192C0.00211579 3.81564 0.549795 2.49627 1.523 1.52304C2.4962 0.549807 3.81554 0.00211584 5.19186 0H10.8081C12.1845 0.00211584 13.5038 0.549807 14.477 1.52304C15.4502 2.49627 15.9979 3.81564 16 5.192V10.8076C15.998 12.184 15.4504 13.5035 14.4772 14.4768C13.5039 15.4501 12.1845 15.9979 10.8081 16ZM5.19275 1.52134C4.21946 1.52239 3.28634 1.90951 2.59812 2.59774C1.9099 3.28598 1.5228 4.21913 1.52174 5.19244V10.808C1.5228 11.7813 1.9099 12.7145 2.59812 13.4027C3.28634 14.0909 4.21946 14.4781 5.19275 14.4791H10.8081C11.7814 14.4781 12.7146 14.0909 13.4028 13.4027C14.091 12.7145 14.4781 11.7813 14.4792 10.808V5.192C14.4781 4.21868 14.091 3.28554 13.4028 2.5973C12.7146 1.90907 11.7814 1.52195 10.8081 1.52089L5.19275 1.52134Z" fill="#7F8ABD"/>
<path d="M7.99981 12.0689C6.9211 12.0676 5.88694 11.6385 5.12418 10.8758C4.36141 10.113 3.93232 9.07878 3.93103 8.00004C3.93232 6.9213 4.36141 5.88712 5.12418 5.12434C5.88694 4.36155 6.9211 3.93245 7.99981 3.93115C9.07852 3.93245 10.1127 4.36155 10.8754 5.12434C11.6382 5.88712 12.0673 6.9213 12.0686 8.00004C12.0673 9.07878 11.6382 10.113 10.8754 10.8758C10.1127 11.6385 9.07852 12.0676 7.99981 12.0689ZM7.99981 5.46316C7.32737 5.46398 6.68271 5.73147 6.20723 6.20697C5.73175 6.68247 5.46426 7.32715 5.46343 7.9996C5.46426 8.67206 5.73175 9.31673 6.20723 9.79223C6.68271 10.2677 7.32737 10.5352 7.99981 10.536C8.67232 10.5353 9.31709 10.2679 9.79267 9.79239C10.2683 9.31688 10.5358 8.67213 10.5366 7.9996C10.5357 7.32715 10.2681 6.68251 9.79251 6.2071C9.31695 5.73169 8.67224 5.46431 7.99981 5.4636V5.46316Z" fill="#7F8ABD"/>
<path d="M12.1836 4.85728C12.6905 4.85728 13.1014 4.44638 13.1014 3.93951C13.1014 3.43263 12.6905 3.02173 12.1836 3.02173C11.6768 3.02173 11.2659 3.43263 11.2659 3.93951C11.2659 4.44638 11.6768 4.85728 12.1836 4.85728Z" fill="#7F8ABD"/>
</svg>
