<svg width="16" height="16" viewBox="0 0 16 16" fill="none" xmlns="http://www.w3.org/2000/svg">
<mask id="mask0_88_951" style="mask-type:alpha" maskUnits="userSpaceOnUse" x="0" y="0" width="16" height="16">
<rect width="16" height="16" />
</mask>
<g mask="url(#mask0_88_951)">
<path d="M1.81645 14C1.69422 14 1.58311 13.9694 1.48311 13.9083C1.38311 13.8472 1.30533 13.7667 1.24978 13.6667C1.19422 13.5667 1.16367 13.4583 1.15811 13.3417C1.15256 13.225 1.18311 13.1111 1.24978 13L7.41644 2.33333C7.48311 2.22222 7.56922 2.13889 7.67478 2.08333C7.78033 2.02778 7.88867 2 7.99978 2C8.11089 2 8.21922 2.02778 8.32478 2.08333C8.43033 2.13889 8.51645 2.22222 8.58311 2.33333L14.7498 13C14.8164 13.1111 14.847 13.225 14.8414 13.3417C14.8359 13.4583 14.8053 13.5667 14.7498 13.6667C14.6942 13.7667 14.6164 13.8472 14.5164 13.9083C14.4164 13.9694 14.3053 14 14.1831 14H1.81645ZM7.99978 12C8.18867 12 8.347 11.9361 8.47478 11.8083C8.60256 11.6806 8.66644 11.5222 8.66644 11.3333C8.66644 11.1444 8.60256 10.9861 8.47478 10.8583C8.347 10.7306 8.18867 10.6667 7.99978 10.6667C7.81089 10.6667 7.65256 10.7306 7.52478 10.8583C7.397 10.9861 7.33311 11.1444 7.33311 11.3333C7.33311 11.5222 7.397 11.6806 7.52478 11.8083C7.65256 11.9361 7.81089 12 7.99978 12ZM7.99978 10C8.18867 10 8.347 9.93611 8.47478 9.80833C8.60256 9.68056 8.66644 9.52222 8.66644 9.33333V7.33333C8.66644 7.14444 8.60256 6.98611 8.47478 6.85833C8.347 6.73056 8.18867 6.66667 7.99978 6.66667C7.81089 6.66667 7.65256 6.73056 7.52478 6.85833C7.397 6.98611 7.33311 7.14444 7.33311 7.33333V9.33333C7.33311 9.52222 7.397 9.68056 7.52478 9.80833C7.65256 9.93611 7.81089 10 7.99978 10Z" />
</g>
</svg>
